<svg id="svg" version="1.1" xmlns="http://www.w3.org/2000/svg" xmlns:xlink="http://www.w3.org/1999/xlink" width="400" height="400" viewBox="0, 0, 400,400"><g id="svgg"><path id="path0" d="M240.000 144.868 C 238.790 145.561,236.180 147.325,234.200 148.787 C 220.351 159.012,215.048 161.848,206.823 163.421 C 197.769 165.154,183.108 160.788,172.338 153.153 C 171.754 152.739,171.176 152.400,171.052 152.400 C 170.929 152.400,169.066 151.249,166.914 149.842 C 157.106 143.431,154.000 142.617,154.000 146.456 C 154.000 147.862,154.306 149.212,156.230 156.300 C 156.543 157.455,157.072 159.406,157.404 160.636 C 164.558 187.108,160.171 201.464,137.979 224.198 C 123.421 239.111,123.853 240.282,143.200 238.348 C 173.891 235.279,189.691 245.740,197.052 274.000 C 200.923 288.865,205.553 290.124,209.637 277.424 C 210.348 275.211,211.362 272.050,211.890 270.400 C 219.059 247.987,232.071 239.242,258.600 239.007 C 268.979 238.916,269.980 238.811,271.300 237.677 C 273.645 235.663,271.695 232.355,264.436 226.035 C 239.131 204.004,234.120 184.452,245.307 151.408 C 247.657 144.469,245.448 141.747,240.000 144.868 M183.768 165.157 C 190.011 167.987,193.136 174.747,191.000 180.800 C 190.670 181.735,190.400 182.561,190.400 182.635 C 190.400 182.708,195.170 182.735,201.000 182.694 C 212.691 182.611,211.991 182.799,211.143 179.969 C 209.209 173.512,215.800 165.627,223.147 165.606 C 240.129 165.558,241.426 189.247,224.500 190.306 C 221.155 190.516,220.888 190.662,221.595 191.905 C 222.311 193.166,224.038 197.324,226.016 202.549 C 228.357 208.735,227.896 208.238,230.474 207.347 C 239.980 204.061,247.783 209.497,247.795 219.416 C 247.811 233.276,229.486 237.410,223.812 224.826 C 222.975 222.970,222.928 222.982,219.932 225.819 C 217.494 228.128,211.252 233.203,210.489 233.497 C 210.155 233.626,210.584 234.342,211.735 235.571 C 221.882 246.420,211.218 262.270,197.709 256.416 C 189.954 253.055,188.418 241.783,194.870 235.576 L 196.766 233.752 195.655 233.096 C 192.475 231.218,183.564 224.188,179.175 220.096 L 176.919 217.991 176.450 220.830 C 173.942 236.018,151.661 234.556,151.602 219.200 C 151.561 208.653,163.082 202.070,171.532 207.812 C 173.289 209.006,173.193 209.105,175.015 204.200 C 175.832 202.000,177.693 197.770,179.150 194.800 C 180.608 191.830,181.851 189.292,181.913 189.160 C 181.976 189.028,180.587 188.810,178.827 188.674 C 171.227 188.088,167.000 183.773,167.000 176.600 C 167.000 167.063,175.372 161.349,183.768 165.157 " stroke="none" fill="#bc0574" fill-rule="evenodd"></path><path id="path1" d="M236.524 178.200 C 236.526 179.520,236.601 180.012,236.690 179.293 C 236.779 178.574,236.777 177.494,236.686 176.893 C 236.595 176.292,236.522 176.880,236.524 178.200 M210.901 178.200 C 210.905 179.080,210.987 179.393,211.083 178.895 C 211.179 178.398,211.175 177.678,211.075 177.295 C 210.975 176.913,210.896 177.320,210.901 178.200 M211.618 182.220 C 211.606 182.501,208.019 182.654,200.761 182.684 L 189.923 182.728 189.001 184.085 C 187.211 186.719,183.859 188.369,180.081 188.476 L 177.400 188.551 179.726 188.696 C 181.006 188.776,181.996 188.967,181.926 189.121 C 181.857 189.274,180.648 191.740,179.239 194.600 C 177.831 197.460,175.921 201.780,174.995 204.200 C 174.010 206.774,173.112 208.555,172.830 208.491 C 172.565 208.432,172.884 209.062,173.539 209.891 C 174.937 211.662,175.939 214.452,176.382 217.800 C 176.556 219.120,176.721 219.678,176.749 219.039 L 176.800 217.878 179.116 220.039 C 183.559 224.184,192.451 231.203,195.662 233.100 C 196.734 233.733,196.751 233.792,196.090 234.556 C 195.410 235.340,195.418 235.339,196.600 234.545 C 198.725 233.119,200.538 232.600,203.400 232.600 C 206.262 232.600,208.075 233.119,210.200 234.545 L 211.400 235.351 210.683 234.525 C 210.137 233.897,210.089 233.651,210.483 233.499 C 210.932 233.326,217.455 228.225,218.000 227.622 C 220.107 225.286,222.932 223.155,223.277 223.640 C 223.562 224.040,223.579 223.972,223.338 223.400 C 221.404 218.820,224.977 208.437,228.501 208.394 C 228.891 208.389,228.889 208.317,228.491 208.064 C 228.210 207.887,227.100 205.414,226.024 202.571 C 224.039 197.327,222.312 193.168,221.595 191.905 C 221.015 190.885,221.111 190.403,221.900 190.374 C 222.285 190.359,221.644 190.090,220.475 189.775 C 217.007 188.842,214.073 186.507,212.464 183.400 C 212.008 182.520,211.627 181.989,211.618 182.220 M168.800 183.725 C 168.800 183.794,169.385 184.379,170.100 185.025 L 171.400 186.200 170.225 184.900 C 169.130 183.688,168.800 183.416,168.800 183.725 M234.707 206.690 C 235.426 206.779,236.506 206.777,237.107 206.686 C 237.708 206.595,237.120 206.522,235.800 206.524 C 234.480 206.526,233.988 206.601,234.707 206.690 " stroke="none" fill="#f3a25e" fill-rule="evenodd"></path><path id="path2" d="M200.900 17.457 C 200.185 18.235,199.600 19.115,199.600 19.413 C 199.600 19.711,199.285 20.190,198.900 20.477 C 198.515 20.765,198.138 21.450,198.062 22.000 C 197.986 22.550,197.761 23.060,197.562 23.133 C 197.363 23.207,197.200 23.601,197.200 24.010 C 197.200 24.418,197.056 24.842,196.879 24.951 C 196.703 25.060,196.310 26.061,196.007 27.175 C 195.704 28.289,195.308 29.200,195.128 29.200 C 194.947 29.200,194.800 29.841,194.800 30.624 C 194.800 31.609,194.656 31.958,194.332 31.758 C 194.034 31.574,193.942 31.674,194.079 32.034 C 194.198 32.345,194.108 33.050,193.880 33.600 C 193.652 34.150,193.428 35.222,193.383 35.983 C 193.337 36.744,193.130 37.423,192.921 37.493 C 192.712 37.563,192.617 38.134,192.709 38.762 C 192.801 39.391,192.680 40.027,192.438 40.176 C 192.197 40.325,192.000 40.902,192.000 41.457 C 192.000 42.012,191.807 42.402,191.570 42.323 C 191.334 42.245,191.165 42.033,191.197 41.854 C 191.228 41.674,190.927 41.288,190.527 40.996 C 190.128 40.704,189.927 40.339,190.082 40.185 C 190.236 40.031,190.145 39.662,189.881 39.366 C 188.664 38.004,188.391 37.600,188.684 37.594 C 188.858 37.591,188.730 37.413,188.400 37.200 C 187.867 36.855,187.867 36.811,188.400 36.800 C 188.767 36.793,188.839 36.673,188.585 36.494 C 188.024 36.096,185.600 32.357,185.600 31.889 C 185.600 31.684,185.149 30.979,184.597 30.324 C 184.046 29.668,183.714 28.940,183.859 28.704 C 184.016 28.451,183.935 28.393,183.662 28.562 C 183.388 28.731,183.200 28.593,183.200 28.224 C 183.200 27.881,183.020 27.600,182.800 27.600 C 182.580 27.600,182.400 27.402,182.400 27.160 C 182.400 26.919,181.860 26.217,181.200 25.600 C 180.540 24.983,180.000 24.321,180.000 24.128 C 180.000 23.936,179.685 23.477,179.300 23.109 C 178.414 22.262,177.738 21.586,176.891 20.700 C 176.523 20.315,175.992 20.000,175.711 20.000 C 175.430 20.000,175.200 19.820,175.200 19.600 C 175.200 19.369,173.933 19.200,172.200 19.200 C 170.467 19.200,169.200 19.369,169.200 19.600 C 169.200 19.820,168.495 20.000,167.633 20.000 C 166.772 20.000,166.007 20.172,165.933 20.382 C 165.860 20.593,165.125 20.810,164.300 20.864 C 163.475 20.919,162.800 21.107,162.800 21.282 C 162.800 21.457,162.440 21.600,162.000 21.600 C 161.560 21.600,161.200 21.780,161.200 22.000 C 161.200 22.220,160.750 22.400,160.200 22.400 C 159.650 22.400,159.200 22.580,159.200 22.800 C 159.200 23.020,158.840 23.200,158.400 23.200 C 157.960 23.200,157.600 23.380,157.600 23.600 C 157.600 23.820,157.240 24.000,156.800 24.000 C 156.360 24.000,156.000 24.180,156.000 24.400 C 156.000 24.620,155.505 24.804,154.900 24.809 C 154.295 24.814,153.350 25.170,152.800 25.600 C 152.250 26.030,151.513 26.386,151.161 26.391 C 150.810 26.396,150.112 26.756,149.610 27.192 C 149.108 27.627,148.540 27.887,148.348 27.768 C 148.157 27.650,148.000 27.743,148.000 27.976 C 148.000 28.209,147.745 28.400,147.433 28.400 C 147.122 28.400,146.803 28.590,146.726 28.822 C 146.649 29.054,146.319 29.297,145.993 29.361 C 144.820 29.594,144.009 30.091,144.226 30.442 C 144.348 30.639,144.156 30.800,143.800 30.800 C 143.444 30.800,143.264 30.980,143.400 31.200 C 143.536 31.420,143.368 31.600,143.027 31.600 C 142.685 31.600,141.971 31.978,141.439 32.441 C 140.907 32.904,140.352 33.252,140.205 33.215 C 140.059 33.178,139.617 33.519,139.223 33.974 C 138.829 34.428,138.325 34.800,138.105 34.800 C 137.541 34.800,127.805 44.441,127.476 45.325 C 127.327 45.724,127.020 45.936,126.793 45.796 C 126.566 45.655,126.430 45.711,126.490 45.920 C 126.551 46.129,126.015 46.947,125.300 47.739 C 124.585 48.531,124.000 49.453,124.000 49.789 C 124.000 50.125,123.820 50.400,123.600 50.400 C 123.380 50.400,123.200 50.670,123.200 51.000 C 123.200 51.330,123.020 51.600,122.800 51.600 C 122.580 51.600,122.400 51.830,122.400 52.112 C 122.400 52.393,122.040 52.883,121.600 53.200 C 121.160 53.517,120.800 53.989,120.800 54.248 C 120.800 54.782,118.543 59.200,117.973 59.780 C 117.768 59.989,117.600 60.664,117.600 61.280 C 117.600 61.896,117.420 62.400,117.200 62.400 C 116.980 62.400,116.800 62.749,116.800 63.176 C 116.800 63.603,116.620 64.064,116.400 64.200 C 116.180 64.336,116.000 64.897,116.000 65.447 C 116.000 66.028,115.828 66.341,115.590 66.194 C 115.365 66.055,115.206 66.089,115.237 66.270 C 115.419 67.318,115.148 69.615,114.863 69.439 C 114.677 69.324,114.486 70.434,114.438 71.906 C 114.391 73.378,114.196 74.679,114.006 74.796 C 113.533 75.089,113.552 84.800,114.025 84.800 C 114.231 84.800,114.400 86.045,114.400 87.567 C 114.400 89.088,114.571 90.393,114.780 90.467 C 114.989 90.540,115.204 91.365,115.258 92.300 C 115.312 93.235,115.501 94.000,115.678 94.000 C 115.855 94.000,116.000 94.720,116.000 95.600 C 116.000 96.480,116.180 97.200,116.400 97.200 C 116.620 97.200,116.800 97.663,116.800 98.229 C 116.800 98.794,117.072 99.529,117.404 99.861 C 117.736 100.193,117.905 100.630,117.780 100.832 C 117.655 101.035,117.743 101.200,117.976 101.200 C 118.209 101.200,118.400 101.549,118.400 101.976 C 118.400 102.403,118.580 102.864,118.800 103.000 C 119.342 103.335,119.309 104.400,118.757 104.400 C 118.514 104.400,118.414 104.139,118.537 103.820 C 118.685 103.433,118.567 103.315,118.180 103.463 C 117.861 103.586,117.600 103.486,117.600 103.243 C 117.600 102.999,117.139 102.800,116.576 102.800 C 116.013 102.800,115.640 102.658,115.748 102.485 C 115.855 102.312,115.460 102.130,114.871 102.081 C 114.282 102.033,113.740 101.815,113.667 101.597 C 113.593 101.378,113.088 101.200,112.543 101.200 C 111.985 101.200,111.661 101.026,111.800 100.800 C 111.944 100.567,111.537 100.400,110.824 100.400 C 110.151 100.400,109.600 100.220,109.600 100.000 C 109.600 99.780,109.060 99.600,108.400 99.600 C 107.740 99.600,107.200 99.420,107.200 99.200 C 107.200 98.980,106.750 98.800,106.200 98.800 C 105.650 98.800,105.200 98.620,105.200 98.400 C 105.200 98.180,105.065 98.021,104.900 98.047 C 103.699 98.237,101.594 97.933,101.800 97.600 C 101.952 97.353,101.271 97.200,100.024 97.200 C 98.911 97.200,98.000 97.020,98.000 96.800 C 98.000 96.567,96.667 96.400,94.800 96.400 C 93.040 96.400,91.600 96.239,91.600 96.042 C 91.600 95.534,81.314 95.463,81.139 95.969 C 81.063 96.190,79.425 96.421,77.500 96.481 C 75.575 96.541,74.000 96.727,74.000 96.895 C 74.000 97.063,73.291 97.200,72.424 97.200 C 71.557 97.200,70.736 97.380,70.600 97.600 C 70.464 97.820,69.363 98.000,68.153 98.000 C 66.788 98.000,66.047 98.152,66.200 98.400 C 66.347 98.639,65.863 98.800,65.000 98.800 C 64.137 98.800,63.653 98.961,63.800 99.200 C 63.947 99.438,63.475 99.600,62.636 99.600 C 61.859 99.600,60.583 99.960,59.800 100.400 C 59.017 100.840,58.021 101.200,57.588 101.200 C 57.155 101.200,56.800 101.380,56.800 101.600 C 56.800 101.820,56.440 102.000,56.000 102.000 C 55.560 102.000,55.200 102.180,55.200 102.400 C 55.200 102.620,54.851 102.800,54.424 102.800 C 53.997 102.800,53.536 102.980,53.400 103.200 C 53.264 103.420,52.837 103.600,52.452 103.600 C 52.066 103.600,51.393 103.915,50.955 104.300 C 49.830 105.289,48.514 106.000,47.805 106.000 C 47.472 106.000,47.200 106.180,47.200 106.400 C 47.200 106.620,46.810 106.800,46.333 106.800 C 45.857 106.800,45.578 106.911,45.714 107.048 C 46.118 107.451,44.926 108.400,44.016 108.400 C 43.553 108.400,43.071 108.670,42.945 109.000 C 42.818 109.330,42.498 109.600,42.233 109.600 C 41.968 109.600,41.402 109.915,40.975 110.300 C 40.549 110.685,39.705 111.255,39.100 111.568 C 38.495 111.880,38.000 112.375,38.000 112.668 C 38.000 112.960,37.820 113.200,37.600 113.200 C 37.380 113.200,37.200 113.470,37.200 113.800 C 37.200 114.130,37.020 114.400,36.800 114.400 C 36.580 114.400,36.400 114.760,36.400 115.200 C 36.400 115.640,36.220 116.000,36.000 116.000 C 35.763 116.000,35.600 117.467,35.600 119.600 C 35.600 121.733,35.763 123.200,36.000 123.200 C 36.220 123.200,36.400 123.830,36.400 124.600 C 36.400 125.370,36.580 126.000,36.800 126.000 C 37.020 126.000,37.200 126.551,37.200 127.224 C 37.200 127.937,37.367 128.344,37.600 128.200 C 37.838 128.053,38.000 128.529,38.000 129.376 C 38.000 130.159,38.180 130.800,38.400 130.800 C 39.081 130.800,38.870 133.488,38.167 133.757 C 37.097 134.168,30.800 134.033,30.800 133.600 C 30.800 133.380,29.810 133.200,28.600 133.200 C 27.390 133.200,26.400 133.380,26.400 133.600 C 26.400 133.820,25.944 134.000,25.387 134.000 C 24.136 134.000,21.855 136.205,21.662 137.600 C 21.586 138.150,21.361 138.660,21.162 138.733 C 20.663 138.917,20.700 144.000,21.200 144.000 C 21.420 144.000,21.600 144.540,21.600 145.200 C 21.600 145.860,21.780 146.400,22.000 146.400 C 22.220 146.400,22.400 146.790,22.400 147.267 C 22.400 147.743,22.519 148.014,22.665 147.869 C 22.931 147.602,24.800 150.071,24.800 150.690 C 24.800 150.872,25.333 151.489,25.984 152.061 C 26.635 152.632,27.109 153.167,27.037 153.250 C 26.966 153.332,27.333 153.811,27.854 154.314 C 28.374 154.817,28.800 155.140,28.800 155.032 C 28.800 154.925,29.215 155.233,29.723 155.718 C 30.231 156.203,31.066 156.870,31.578 157.200 C 32.091 157.530,32.927 158.205,33.437 158.700 C 33.947 159.195,34.562 159.600,34.805 159.600 C 35.048 159.600,35.119 159.808,34.962 160.062 C 34.791 160.338,34.851 160.415,35.112 160.254 C 35.352 160.106,36.006 160.442,36.565 161.001 C 37.124 161.561,37.680 162.001,37.801 161.979 C 37.921 161.958,38.240 162.019,38.510 162.115 C 39.681 162.534,38.245 162.829,34.853 162.867 C 32.844 162.890,31.200 163.064,31.200 163.254 C 31.200 163.444,29.389 163.600,27.176 163.600 C 24.596 163.600,23.241 163.743,23.400 164.000 C 23.552 164.246,22.897 164.400,21.704 164.400 C 20.635 164.400,19.589 164.571,19.379 164.781 C 19.170 164.990,18.335 165.206,17.525 165.261 C 16.715 165.315,16.141 165.504,16.249 165.680 C 16.358 165.856,16.248 166.000,16.005 166.000 C 15.065 166.000,13.687 167.927,13.407 169.633 C 12.588 174.619,13.153 193.123,14.174 194.762 C 14.413 195.146,14.378 195.234,14.062 195.038 C 13.808 194.881,13.600 194.928,13.600 195.143 C 13.600 195.358,13.771 195.593,13.980 195.667 C 14.189 195.740,14.402 196.610,14.454 197.600 C 14.506 198.590,14.689 199.497,14.861 199.616 C 15.034 199.734,15.218 200.409,15.272 201.116 C 15.326 201.822,15.512 202.400,15.685 202.400 C 15.858 202.400,16.000 202.929,16.000 203.576 C 16.000 204.223,16.180 204.864,16.400 205.000 C 16.620 205.136,16.800 205.867,16.800 206.624 C 16.800 207.381,16.980 208.000,17.200 208.000 C 17.420 208.000,17.600 208.551,17.600 209.224 C 17.600 209.937,17.767 210.344,18.000 210.200 C 18.220 210.064,18.400 210.287,18.400 210.696 C 18.400 211.105,18.579 211.619,18.798 211.838 C 19.016 212.056,19.235 212.709,19.283 213.289 C 19.330 213.868,19.512 214.255,19.685 214.148 C 19.858 214.040,20.000 214.413,20.000 214.976 C 20.000 215.539,20.180 216.000,20.400 216.000 C 20.620 216.000,20.800 216.540,20.800 217.200 C 20.800 217.860,20.980 218.400,21.200 218.400 C 21.420 218.400,21.600 218.683,21.600 219.029 C 21.600 219.374,21.879 219.936,22.220 220.277 C 22.560 220.618,22.942 221.412,23.068 222.042 C 23.194 222.672,23.435 223.102,23.602 222.999 C 23.770 222.895,24.130 223.348,24.402 224.005 C 24.674 224.662,25.074 225.200,25.291 225.200 C 25.508 225.200,25.587 225.457,25.467 225.771 C 25.346 226.085,25.505 226.555,25.819 226.816 C 26.134 227.077,26.307 227.426,26.205 227.592 C 26.103 227.758,26.375 228.215,26.809 228.609 C 27.244 229.002,27.600 229.686,27.600 230.129 C 27.600 230.571,27.709 230.824,27.842 230.691 C 28.046 230.487,30.800 233.713,30.800 234.155 C 30.800 234.237,31.970 235.497,33.400 236.955 C 34.830 238.414,36.000 239.502,36.000 239.375 C 36.000 239.247,36.270 239.413,36.600 239.743 C 36.930 240.073,37.200 240.566,37.200 240.838 C 37.200 241.110,37.318 241.216,37.462 241.072 C 37.605 240.928,38.237 241.348,38.865 242.005 C 39.493 242.662,40.236 243.200,40.515 243.200 C 40.795 243.200,41.283 243.560,41.600 244.000 C 41.917 244.440,42.485 244.800,42.861 244.800 C 43.238 244.800,43.660 245.160,43.800 245.600 C 43.940 246.040,44.357 246.406,44.727 246.413 C 45.571 246.429,46.876 247.390,46.527 247.740 C 46.384 247.883,46.531 248.000,46.854 248.000 C 47.642 248.000,49.593 248.925,49.597 249.300 C 49.599 249.465,49.960 249.600,50.400 249.600 C 50.840 249.600,51.200 249.780,51.200 250.000 C 51.200 250.220,51.560 250.400,52.000 250.400 C 52.440 250.400,52.800 250.591,52.800 250.824 C 52.800 251.057,52.965 251.145,53.168 251.020 C 53.370 250.895,53.799 251.056,54.120 251.377 C 54.442 251.699,54.802 251.865,54.920 251.747 C 55.115 251.551,57.144 252.310,58.895 253.234 C 59.277 253.435,59.952 253.600,60.395 253.600 C 60.838 253.600,61.200 253.741,61.200 253.913 C 61.200 254.085,61.685 254.266,62.278 254.315 C 62.870 254.364,63.455 254.547,63.578 254.721 C 63.700 254.896,64.423 255.080,65.184 255.132 C 65.946 255.183,66.666 255.355,66.784 255.513 C 66.903 255.671,67.805 255.854,68.789 255.920 C 69.773 255.987,70.698 256.235,70.844 256.472 C 70.991 256.709,71.338 256.762,71.617 256.589 C 72.565 256.004,70.831 258.275,68.418 260.781 C 67.878 261.341,67.518 261.841,67.618 261.891 C 67.888 262.026,65.862 265.200,65.506 265.200 C 65.338 265.200,65.200 265.481,65.200 265.824 C 65.200 266.167,65.020 266.336,64.800 266.200 C 64.580 266.064,64.400 266.323,64.400 266.776 C 64.400 267.229,64.201 267.600,63.957 267.600 C 63.714 267.600,63.621 267.877,63.750 268.215 C 63.885 268.565,63.731 268.928,63.393 269.058 C 63.067 269.183,62.800 269.626,62.800 270.043 C 62.800 270.459,62.620 270.800,62.400 270.800 C 62.180 270.800,62.040 270.935,62.089 271.100 C 62.213 271.516,61.063 274.000,60.747 274.000 C 60.605 274.000,60.371 274.630,60.226 275.400 C 60.082 276.170,59.821 276.800,59.646 276.800 C 59.144 276.800,58.400 278.722,58.400 280.019 C 58.400 280.668,58.220 281.200,58.000 281.200 C 57.780 281.200,57.600 281.473,57.600 281.806 C 57.600 282.776,56.634 285.600,56.303 285.600 C 56.136 285.600,56.000 286.219,56.000 286.976 C 56.000 287.733,55.820 288.464,55.600 288.600 C 55.380 288.736,55.200 289.377,55.200 290.024 C 55.200 290.671,55.020 291.200,54.800 291.200 C 54.580 291.200,54.400 291.999,54.400 292.976 C 54.400 293.953,54.220 294.864,54.000 295.000 C 53.780 295.136,53.600 296.227,53.600 297.424 C 53.600 298.621,53.435 299.600,53.233 299.600 C 52.709 299.600,52.664 313.068,53.186 313.392 C 53.414 313.532,53.600 314.727,53.600 316.047 C 53.600 317.545,53.750 318.354,54.000 318.200 C 54.242 318.051,54.400 318.596,54.400 319.576 C 54.400 320.469,54.580 321.200,54.800 321.200 C 55.020 321.200,55.200 321.841,55.200 322.624 C 55.200 323.471,55.362 323.947,55.600 323.800 C 55.826 323.660,56.000 323.988,56.000 324.553 C 56.000 325.103,56.180 325.664,56.400 325.800 C 56.620 325.936,56.800 326.476,56.800 327.000 C 56.800 327.524,56.980 328.064,57.200 328.200 C 57.420 328.336,57.600 328.797,57.600 329.224 C 57.600 329.651,57.780 330.000,58.000 330.000 C 58.220 330.000,58.400 330.360,58.400 330.800 C 58.400 331.240,58.588 331.600,58.818 331.600 C 59.047 331.600,59.196 331.825,59.148 332.100 C 59.032 332.768,60.036 334.800,60.482 334.800 C 60.676 334.800,60.798 335.025,60.753 335.300 C 60.624 336.089,61.482 337.869,62.106 338.109 C 62.419 338.229,62.986 338.984,63.367 339.787 C 63.749 340.591,64.317 341.347,64.630 341.467 C 64.944 341.587,65.200 341.950,65.200 342.274 C 65.200 342.598,65.920 343.554,66.800 344.400 C 67.680 345.246,68.400 346.087,68.400 346.271 C 68.400 346.717,71.509 350.000,71.932 350.000 C 72.115 350.000,72.506 350.450,72.800 351.000 C 73.094 351.550,73.620 352.006,73.968 352.013 C 74.781 352.029,76.067 352.999,75.727 353.340 C 75.584 353.483,75.957 353.600,76.557 353.600 C 77.182 353.600,77.542 353.771,77.400 354.000 C 77.253 354.238,77.721 354.400,78.553 354.400 C 79.323 354.400,80.042 354.544,80.151 354.720 C 80.503 355.290,83.599 355.286,83.606 354.716 C 83.611 354.315,83.689 354.320,83.956 354.743 C 84.196 355.121,84.383 355.151,84.574 354.843 C 84.724 354.599,85.229 354.400,85.695 354.400 C 86.583 354.400,89.255 353.566,89.600 353.181 C 90.083 352.642,92.746 351.200,93.259 351.200 C 93.569 351.200,94.083 350.840,94.400 350.400 C 94.717 349.960,95.177 349.600,95.422 349.600 C 95.667 349.600,98.462 347.031,101.634 343.892 C 110.152 335.459,112.041 334.832,109.737 341.200 C 109.379 342.190,109.110 343.405,109.139 343.900 C 109.167 344.395,109.013 344.800,108.796 344.800 C 108.578 344.800,108.400 345.329,108.400 345.976 C 108.400 346.623,108.220 347.264,108.000 347.400 C 107.780 347.536,107.600 348.796,107.600 350.200 C 107.600 351.604,107.420 352.864,107.200 353.000 C 106.956 353.151,106.800 356.204,106.800 360.824 C 106.800 365.608,106.947 368.400,107.200 368.400 C 107.420 368.400,107.600 369.120,107.600 370.000 C 107.600 370.880,107.791 371.600,108.024 371.600 C 108.257 371.600,108.368 371.735,108.271 371.900 C 107.976 372.400,108.766 374.069,109.177 373.814 C 109.387 373.684,109.755 373.943,109.994 374.389 C 110.233 374.835,110.742 375.200,111.126 375.200 C 111.509 375.200,112.083 375.560,112.400 376.000 C 112.717 376.440,113.353 376.800,113.813 376.800 C 114.273 376.800,115.005 377.115,115.440 377.500 C 115.875 377.885,116.493 378.259,116.812 378.332 C 117.131 378.405,117.484 378.585,117.596 378.732 C 117.708 378.879,118.160 379.061,118.600 379.137 C 119.040 379.212,119.460 379.437,119.533 379.637 C 119.607 379.836,120.091 380.000,120.610 380.000 C 121.128 380.000,121.664 380.180,121.800 380.400 C 121.936 380.620,122.487 380.800,123.024 380.800 C 123.561 380.800,124.000 380.980,124.000 381.200 C 124.000 381.420,124.450 381.600,125.000 381.600 C 125.550 381.600,126.000 381.760,126.000 381.956 C 126.000 382.152,126.585 382.415,127.300 382.540 C 128.015 382.664,129.590 382.969,130.800 383.216 C 132.010 383.463,134.710 383.820,136.800 384.011 C 138.890 384.201,141.368 384.476,142.308 384.621 C 143.317 384.777,144.222 384.714,144.521 384.465 C 144.800 384.234,146.642 384.011,148.614 383.970 C 150.586 383.929,152.294 383.749,152.409 383.571 C 152.524 383.392,153.480 383.202,154.533 383.147 C 155.585 383.093,156.537 382.902,156.647 382.724 C 156.757 382.546,157.477 382.400,158.247 382.400 C 159.079 382.400,159.547 382.238,159.400 382.000 C 159.256 381.767,159.655 381.600,160.353 381.600 C 161.013 381.600,161.664 381.420,161.800 381.200 C 161.936 380.980,162.476 380.800,163.000 380.800 C 163.524 380.800,164.064 380.620,164.200 380.400 C 164.336 380.180,164.797 380.000,165.224 380.000 C 165.651 380.000,166.000 379.820,166.000 379.600 C 166.000 379.380,166.540 379.200,167.200 379.200 C 167.860 379.200,168.400 379.020,168.400 378.800 C 168.400 378.580,168.760 378.400,169.200 378.400 C 169.640 378.400,170.000 378.220,170.000 378.000 C 170.000 377.780,170.371 377.600,170.824 377.600 C 171.277 377.600,171.536 377.420,171.400 377.200 C 171.264 376.980,171.489 376.800,171.901 376.800 C 172.312 376.800,173.036 376.440,173.508 376.000 C 173.980 375.560,174.509 375.199,174.683 375.198 C 174.857 375.197,175.798 374.667,176.773 374.020 C 177.749 373.373,178.661 372.914,178.801 373.000 C 178.940 373.087,179.307 372.807,179.615 372.379 C 179.924 371.950,180.380 371.600,180.629 371.600 C 180.878 371.600,181.646 371.060,182.337 370.400 C 183.028 369.740,183.716 369.200,183.866 369.200 C 184.151 369.200,188.138 365.435,189.951 363.453 C 190.528 362.822,191.495 361.793,192.100 361.167 C 192.705 360.540,193.200 359.823,193.200 359.574 C 193.200 359.325,193.695 358.644,194.300 358.060 C 194.905 357.477,195.652 356.511,195.960 355.914 C 196.268 355.316,196.673 354.922,196.860 355.037 C 197.047 355.153,197.200 354.770,197.200 354.186 C 197.200 353.462,197.454 353.059,198.000 352.916 C 198.440 352.801,198.800 352.494,198.800 352.233 C 198.800 351.534,199.753 349.607,200.100 349.603 C 200.265 349.601,200.400 349.240,200.400 348.800 C 200.400 348.360,200.580 348.000,200.800 348.000 C 201.020 348.000,201.200 347.640,201.200 347.200 C 201.200 346.760,201.380 346.400,201.600 346.400 C 201.820 346.400,202.000 346.040,202.000 345.600 C 202.000 345.160,202.174 344.800,202.387 344.800 C 202.601 344.800,202.683 344.560,202.570 344.267 C 202.454 343.964,202.633 343.733,202.983 343.733 C 203.363 343.733,203.600 344.092,203.600 344.667 C 203.600 345.180,203.780 345.600,204.000 345.600 C 204.220 345.600,204.400 345.894,204.400 346.253 C 204.400 346.612,204.716 347.197,205.103 347.553 C 205.489 347.909,206.060 348.695,206.370 349.300 C 206.681 349.905,207.085 350.400,207.268 350.400 C 207.450 350.400,207.600 350.636,207.600 350.925 C 207.600 351.213,207.964 351.840,208.408 352.317 C 208.853 352.794,209.213 353.278,209.208 353.392 C 209.174 354.247,209.243 354.421,209.542 354.236 C 209.729 354.120,210.085 354.469,210.333 355.013 C 210.580 355.556,210.977 356.000,211.215 356.000 C 211.453 356.000,211.542 356.170,211.414 356.378 C 211.194 356.734,215.488 361.206,219.700 365.007 C 220.745 365.951,221.600 366.920,221.600 367.161 C 221.600 367.402,221.920 367.600,222.312 367.600 C 222.703 367.600,223.276 367.950,223.585 368.379 C 223.893 368.807,224.293 369.066,224.473 368.955 C 224.653 368.844,224.800 369.044,224.800 369.400 C 224.800 369.756,224.989 369.930,225.221 369.787 C 225.452 369.644,226.065 369.949,226.583 370.464 C 228.058 371.930,228.695 372.372,228.957 372.109 C 229.091 371.976,229.200 372.068,229.200 372.315 C 229.200 372.561,229.987 373.111,230.948 373.536 C 231.910 373.961,232.821 374.510,232.972 374.755 C 233.123 375.000,233.687 375.200,234.224 375.200 C 234.761 375.200,235.200 375.380,235.200 375.600 C 235.200 375.820,235.470 376.000,235.800 376.000 C 236.130 376.000,236.400 376.180,236.400 376.400 C 236.400 376.620,236.760 376.800,237.200 376.800 C 237.640 376.800,238.000 376.980,238.000 377.200 C 238.000 377.420,238.360 377.600,238.800 377.600 C 239.240 377.600,239.600 377.780,239.600 378.000 C 239.600 378.220,240.140 378.400,240.800 378.400 C 241.460 378.400,242.001 378.535,242.003 378.700 C 242.008 379.147,244.026 380.000,245.080 380.000 C 245.586 380.000,246.000 380.180,246.000 380.400 C 246.000 380.620,246.630 380.800,247.400 380.800 C 248.170 380.800,248.800 380.980,248.800 381.200 C 248.800 381.420,249.441 381.600,250.224 381.600 C 251.007 381.600,251.556 381.747,251.445 381.926 C 251.335 382.106,252.089 382.296,253.122 382.348 C 254.155 382.400,255.060 382.613,255.133 382.821 C 255.207 383.030,256.332 383.200,257.633 383.200 C 258.935 383.200,260.000 383.375,260.000 383.590 C 260.000 384.460,282.829 383.665,283.780 382.761 C 283.989 382.563,284.718 382.400,285.400 382.400 C 286.082 382.400,286.819 382.221,287.038 382.002 C 287.256 381.784,287.909 381.565,288.489 381.517 C 289.068 381.470,289.455 381.288,289.348 381.115 C 289.240 380.942,289.523 380.800,289.976 380.800 C 290.429 380.800,290.800 380.620,290.800 380.400 C 290.800 380.180,291.078 380.000,291.417 380.000 C 292.079 380.000,292.605 379.621,294.313 377.913 C 296.021 376.205,296.400 375.679,296.400 375.017 C 296.400 374.678,296.580 374.400,296.800 374.400 C 297.020 374.400,297.200 373.669,297.200 372.776 C 297.200 371.796,297.358 371.251,297.600 371.400 C 297.850 371.554,298.000 370.749,298.000 369.257 C 298.000 367.709,297.825 366.808,297.504 366.701 C 297.143 366.581,297.189 366.354,297.675 365.868 C 298.560 364.983,299.297 365.025,300.000 366.000 C 300.317 366.440,300.857 366.800,301.200 366.800 C 301.543 366.800,302.076 367.150,302.385 367.579 C 302.693 368.007,303.078 368.275,303.241 368.175 C 303.403 368.075,303.793 368.250,304.108 368.565 C 304.755 369.212,310.928 370.071,311.133 369.542 C 311.207 369.354,311.687 369.200,312.200 369.200 C 312.713 369.200,313.193 369.036,313.267 368.837 C 313.340 368.637,313.760 368.412,314.200 368.337 C 315.228 368.161,316.000 367.428,316.000 366.629 C 316.000 366.283,316.180 366.000,316.400 366.000 C 316.640 366.000,316.800 364.408,316.800 362.024 C 316.800 359.804,316.623 357.938,316.400 357.800 C 316.180 357.664,316.000 356.944,316.000 356.200 C 316.000 355.456,315.820 354.736,315.600 354.600 C 315.380 354.464,315.200 353.748,315.200 353.010 C 315.200 352.271,315.037 351.607,314.838 351.533 C 314.639 351.460,314.414 350.860,314.339 350.200 C 314.264 349.540,314.112 348.910,314.001 348.800 C 313.407 348.210,312.800 346.685,312.800 345.782 C 312.800 345.198,312.627 344.860,312.400 345.000 C 312.180 345.136,312.000 344.887,312.000 344.447 C 312.000 344.007,311.820 343.536,311.600 343.400 C 311.380 343.264,311.200 342.713,311.200 342.176 C 311.200 341.639,311.020 341.200,310.800 341.200 C 310.580 341.200,310.400 340.840,310.400 340.400 C 310.400 339.960,310.220 339.600,310.000 339.600 C 309.780 339.600,309.600 339.240,309.600 338.800 C 309.600 338.360,309.420 338.000,309.200 338.000 C 308.980 338.000,308.800 337.640,308.800 337.200 C 308.800 336.760,308.620 336.400,308.400 336.400 C 308.180 336.400,308.000 336.242,308.000 336.049 C 308.000 335.856,307.698 335.001,307.329 334.149 C 306.424 332.058,306.371 331.600,307.035 331.600 C 307.346 331.600,307.600 331.746,307.600 331.925 C 307.600 332.104,308.230 332.498,309.000 332.800 C 309.770 333.102,310.400 333.526,310.400 333.741 C 310.400 333.957,310.515 334.018,310.656 333.877 C 310.797 333.736,311.382 333.867,311.956 334.168 C 312.530 334.469,313.900 335.123,315.000 335.621 C 316.100 336.119,317.313 336.678,317.695 336.863 C 318.077 337.048,318.752 337.200,319.195 337.200 C 319.638 337.200,320.000 337.361,320.000 337.558 C 320.000 337.755,320.675 338.015,321.500 338.135 C 324.227 338.534,325.600 338.887,325.600 339.189 C 325.600 339.871,336.595 339.427,337.705 338.699 C 338.292 338.315,338.961 338.000,339.191 338.000 C 339.878 338.000,341.330 337.068,342.280 336.017 C 342.768 335.477,343.283 335.150,343.425 335.291 C 343.749 335.615,345.555 333.907,345.322 333.497 C 345.227 333.331,345.431 333.086,345.775 332.954 C 346.119 332.822,346.400 332.503,346.400 332.246 C 346.400 331.988,346.760 331.517,347.200 331.200 C 347.640 330.883,348.000 330.393,348.000 330.112 C 348.000 329.830,348.180 329.600,348.400 329.600 C 348.620 329.600,348.800 329.330,348.800 329.000 C 348.800 328.670,348.980 328.400,349.200 328.400 C 349.420 328.400,349.600 328.128,349.600 327.795 C 349.600 327.462,349.759 326.877,349.953 326.495 C 351.407 323.636,352.800 319.530,352.800 318.100 C 352.800 317.385,352.956 316.800,353.146 316.800 C 353.336 316.800,353.526 315.225,353.567 313.300 C 353.609 311.375,353.814 309.629,354.022 309.420 C 354.524 308.915,354.517 297.307,354.015 297.133 C 353.803 297.060,353.598 295.740,353.559 294.200 C 353.520 292.660,353.336 291.301,353.150 291.180 C 352.964 291.059,352.764 290.295,352.706 289.481 C 352.648 288.667,352.465 288.001,352.300 288.001 C 352.135 288.000,352.000 287.381,352.000 286.624 C 352.000 285.867,351.820 285.136,351.600 285.000 C 351.380 284.864,351.200 284.223,351.200 283.576 C 351.200 282.929,351.020 282.400,350.800 282.400 C 350.580 282.400,350.400 281.849,350.400 281.176 C 350.400 280.463,350.233 280.056,350.000 280.200 C 349.780 280.336,349.600 280.202,349.600 279.903 C 349.600 279.149,348.665 277.207,348.300 277.203 C 348.135 277.201,348.000 276.761,348.000 276.224 C 348.000 275.687,347.820 275.136,347.600 275.000 C 347.380 274.864,347.200 274.403,347.200 273.976 C 347.200 273.549,347.020 273.200,346.800 273.200 C 346.580 273.200,346.400 272.829,346.400 272.376 C 346.400 271.923,346.220 271.664,346.000 271.800 C 345.780 271.936,345.600 271.767,345.600 271.424 C 345.600 271.081,345.420 270.800,345.200 270.800 C 344.980 270.800,344.800 270.610,344.800 270.379 C 344.800 270.147,343.990 268.717,343.000 267.200 C 342.010 265.683,341.200 264.253,341.200 264.021 C 341.200 263.790,341.009 263.600,340.776 263.600 C 340.543 263.600,340.459 263.428,340.589 263.218 C 340.719 263.007,340.370 262.537,339.813 262.172 C 339.256 261.807,338.800 261.266,338.800 260.971 C 338.800 260.676,337.720 259.367,336.400 258.064 C 333.871 255.566,333.436 254.727,334.863 255.100 C 335.454 255.255,335.635 255.180,335.439 254.863 C 335.242 254.545,335.606 254.400,336.600 254.400 C 337.463 254.400,337.947 254.239,337.800 254.000 C 337.664 253.780,337.833 253.600,338.176 253.600 C 339.114 253.600,339.084 253.608,340.593 252.977 C 341.367 252.654,342.000 252.489,342.000 252.610 C 342.000 252.732,342.394 252.464,342.875 252.016 C 343.357 251.567,344.167 251.200,344.675 251.200 C 345.184 251.200,345.600 251.020,345.600 250.800 C 345.600 250.580,345.960 250.400,346.400 250.400 C 346.840 250.400,347.200 250.220,347.200 250.000 C 347.200 249.780,347.560 249.600,348.000 249.600 C 348.440 249.600,348.800 249.420,348.800 249.200 C 348.800 248.980,349.083 248.800,349.429 248.800 C 349.774 248.800,350.329 248.528,350.661 248.196 C 350.993 247.864,351.475 247.713,351.732 247.860 C 351.990 248.008,352.068 247.982,351.906 247.804 C 351.552 247.412,352.755 246.431,353.612 246.413 C 353.948 246.406,354.483 246.040,354.800 245.600 C 355.117 245.160,355.654 244.800,355.992 244.800 C 356.331 244.800,356.832 244.440,357.107 244.000 C 357.382 243.560,357.803 243.200,358.043 243.200 C 358.283 243.200,358.983 242.660,359.600 242.000 C 360.217 241.340,360.989 240.800,361.318 240.800 C 361.646 240.800,362.018 240.530,362.145 240.200 C 362.271 239.870,362.611 239.600,362.899 239.600 C 363.187 239.600,363.683 239.240,364.000 238.800 C 364.317 238.360,364.711 238.000,364.875 238.000 C 365.039 238.000,366.530 236.662,368.187 235.026 C 369.844 233.390,371.200 232.149,371.200 232.268 C 371.200 232.387,371.741 231.881,372.401 231.142 C 374.075 229.273,374.224 229.076,374.812 227.975 C 375.099 227.439,375.843 226.523,376.467 225.940 C 377.090 225.356,377.600 224.561,377.600 224.173 C 377.600 223.784,377.717 223.584,377.860 223.727 C 378.220 224.087,379.172 222.760,379.187 221.876 C 379.194 221.478,379.380 221.264,379.600 221.400 C 379.820 221.536,380.000 221.278,380.000 220.827 C 380.000 220.376,380.360 219.782,380.800 219.507 C 381.240 219.232,381.600 218.691,381.600 218.304 C 381.600 217.917,381.780 217.600,382.000 217.600 C 382.220 217.600,382.400 217.240,382.400 216.800 C 382.400 216.360,382.580 216.000,382.800 216.000 C 383.020 216.000,383.200 215.359,383.200 214.576 C 383.200 213.729,383.362 213.253,383.600 213.400 C 383.828 213.541,384.000 213.196,384.000 212.600 C 384.000 212.004,384.172 211.659,384.400 211.800 C 384.633 211.944,384.800 211.537,384.800 210.824 C 384.800 210.151,384.961 209.600,385.158 209.600 C 385.355 209.600,385.607 208.925,385.718 208.100 C 385.830 207.275,386.015 206.240,386.130 205.800 C 386.245 205.360,386.353 204.584,386.369 204.076 C 386.386 203.568,386.580 203.264,386.800 203.400 C 387.050 203.554,387.200 202.737,387.200 201.224 C 387.200 199.891,387.369 198.800,387.576 198.800 C 387.802 198.800,387.947 194.870,387.938 189.000 C 387.929 183.270,387.773 179.293,387.561 179.424 C 387.363 179.547,387.200 178.837,387.200 177.847 C 387.200 176.857,387.020 175.936,386.800 175.800 C 386.580 175.664,386.400 174.843,386.400 173.976 C 386.400 173.109,386.220 172.400,386.000 172.400 C 385.780 172.400,385.600 172.130,385.600 171.800 C 385.600 171.470,385.420 171.200,385.200 171.200 C 384.980 171.200,384.800 171.007,384.800 170.771 C 384.800 170.099,383.894 169.413,382.800 169.259 C 382.250 169.181,381.710 168.976,381.600 168.803 C 381.356 168.419,378.250 168.025,373.300 167.751 C 371.265 167.638,369.600 167.405,369.600 167.233 C 369.600 167.062,367.575 166.886,365.100 166.844 C 362.625 166.802,360.540 166.594,360.467 166.383 C 360.393 166.173,359.313 165.994,358.067 165.987 C 354.096 165.965,353.429 164.652,356.100 162.115 C 357.035 161.227,358.065 160.118,358.388 159.650 C 358.712 159.183,359.173 158.800,359.413 158.800 C 359.653 158.800,360.224 158.451,360.682 158.024 C 361.140 157.597,361.624 157.357,361.757 157.491 C 361.891 157.624,362.000 157.423,362.000 157.043 C 362.000 156.663,362.180 156.464,362.400 156.600 C 362.620 156.736,362.800 156.657,362.800 156.424 C 362.800 156.191,363.061 156.000,363.380 156.000 C 363.699 156.000,364.144 155.685,364.368 155.300 C 364.592 154.915,364.781 154.741,364.788 154.913 C 364.795 155.086,365.454 154.615,366.253 153.867 C 368.492 151.772,369.178 151.200,369.453 151.200 C 369.592 151.200,369.997 150.868,370.353 150.463 C 370.709 150.057,371.450 149.491,372.000 149.203 C 372.550 148.916,373.450 148.137,374.000 147.473 C 374.550 146.808,375.405 145.853,375.900 145.350 C 376.395 144.848,376.800 144.158,376.800 143.818 C 376.800 143.478,376.980 143.200,377.200 143.200 C 377.720 143.200,377.723 141.308,377.203 141.133 C 376.985 141.060,376.766 140.505,376.716 139.900 C 376.666 139.295,376.530 138.798,376.413 138.795 C 376.296 138.793,375.856 138.073,375.436 137.195 C 375.015 136.318,374.510 135.600,374.312 135.600 C 374.114 135.600,374.064 135.420,374.200 135.200 C 374.336 134.980,374.246 134.800,374.000 134.800 C 373.754 134.800,373.644 134.653,373.755 134.473 C 373.866 134.293,373.607 133.893,373.179 133.585 C 372.750 133.276,372.400 132.812,372.400 132.554 C 372.400 132.297,372.119 131.978,371.775 131.846 C 371.431 131.714,371.261 131.424,371.398 131.203 C 371.535 130.981,371.350 130.800,370.986 130.800 C 370.623 130.800,370.234 130.452,370.123 130.028 C 370.012 129.603,369.669 129.159,369.361 129.040 C 369.052 128.922,368.800 128.620,368.800 128.369 C 368.800 128.119,367.810 126.939,366.600 125.748 C 365.390 124.557,364.400 123.306,364.400 122.968 C 364.400 122.630,364.220 122.464,364.000 122.600 C 363.780 122.736,363.600 122.556,363.600 122.200 C 363.600 121.844,363.420 121.664,363.200 121.800 C 362.980 121.936,362.800 121.847,362.800 121.601 C 362.800 120.738,354.491 113.119,353.370 112.954 C 353.028 112.904,352.424 112.489,352.027 112.032 C 351.631 111.574,351.102 111.200,350.853 111.200 C 350.604 111.200,350.400 111.001,350.400 110.757 C 350.400 110.514,350.123 110.421,349.785 110.550 C 349.442 110.682,349.074 110.536,348.953 110.222 C 348.834 109.912,348.391 109.725,347.968 109.806 C 347.546 109.887,347.200 109.784,347.200 109.577 C 347.200 109.370,346.840 109.200,346.400 109.200 C 345.960 109.200,345.600 109.020,345.600 108.800 C 345.600 108.580,345.240 108.400,344.800 108.400 C 344.360 108.400,344.000 108.220,344.000 108.000 C 344.000 107.780,343.640 107.600,343.200 107.600 C 342.760 107.600,342.400 107.420,342.400 107.200 C 342.400 106.980,342.040 106.800,341.600 106.800 C 341.160 106.800,340.800 106.620,340.800 106.400 C 340.800 106.180,340.350 106.000,339.800 106.000 C 339.250 106.000,338.800 105.820,338.800 105.600 C 338.800 105.380,338.440 105.200,338.000 105.200 C 337.560 105.200,337.200 105.020,337.200 104.800 C 337.200 104.580,336.660 104.400,336.000 104.400 C 335.340 104.400,334.800 104.220,334.800 104.000 C 334.800 103.780,334.080 103.600,333.200 103.600 C 332.320 103.600,331.600 103.420,331.600 103.200 C 331.600 102.980,330.891 102.800,330.024 102.800 C 329.157 102.800,328.336 102.620,328.200 102.400 C 328.064 102.180,327.164 102.000,326.200 102.000 C 325.236 102.000,324.336 101.820,324.200 101.600 C 324.064 101.380,322.963 101.200,321.753 101.200 C 320.348 101.200,319.645 101.051,319.807 100.789 C 319.978 100.511,317.250 100.390,311.431 100.416 C 306.391 100.438,302.800 100.609,302.800 100.827 C 302.800 101.032,301.540 101.200,300.000 101.200 C 298.400 101.200,297.200 101.371,297.200 101.600 C 297.200 101.820,296.480 102.000,295.600 102.000 C 294.720 102.000,294.000 102.180,294.000 102.400 C 294.000 102.620,293.370 102.800,292.600 102.800 C 291.830 102.800,291.200 102.980,291.200 103.200 C 291.200 103.420,290.660 103.600,290.000 103.600 C 289.340 103.600,288.800 103.780,288.800 104.000 C 288.800 104.220,288.275 104.400,287.633 104.400 C 286.992 104.400,286.407 104.563,286.333 104.762 C 286.260 104.961,285.750 105.186,285.200 105.262 C 284.650 105.338,284.094 105.544,283.964 105.720 C 283.834 105.896,283.294 106.070,282.764 106.106 C 282.234 106.142,281.560 106.404,281.268 106.689 C 280.975 106.974,280.570 107.105,280.368 106.980 C 280.165 106.855,280.000 106.943,280.000 107.176 C 280.000 107.409,279.640 107.600,279.200 107.600 C 278.760 107.600,278.400 107.759,278.400 107.953 C 278.400 108.148,278.040 108.401,277.600 108.516 C 277.160 108.631,276.800 108.562,276.800 108.363 C 276.800 108.163,276.980 108.000,277.200 108.000 C 277.420 108.000,277.600 107.550,277.600 107.000 C 277.600 106.450,277.780 106.000,278.000 106.000 C 278.220 106.000,278.400 105.471,278.400 104.824 C 278.400 104.177,278.580 103.536,278.800 103.400 C 279.020 103.264,279.200 102.533,279.200 101.776 C 279.200 101.019,279.380 100.400,279.600 100.400 C 279.820 100.400,280.000 99.601,280.000 98.624 C 280.000 97.647,280.180 96.736,280.400 96.600 C 280.620 96.464,280.800 95.463,280.800 94.376 C 280.800 93.289,280.980 92.400,281.200 92.400 C 281.457 92.400,281.600 88.608,281.600 81.824 C 281.600 75.204,281.450 71.155,281.200 71.000 C 280.980 70.864,280.800 69.863,280.800 68.776 C 280.800 67.689,280.620 66.800,280.400 66.800 C 280.180 66.800,280.000 66.181,280.000 65.424 C 280.000 64.667,279.820 63.936,279.600 63.800 C 279.380 63.664,279.200 63.124,279.200 62.600 C 279.200 62.076,279.020 61.536,278.800 61.400 C 278.580 61.264,278.400 60.724,278.400 60.200 C 278.400 59.676,278.220 59.136,278.000 59.000 C 277.780 58.864,277.600 58.313,277.600 57.776 C 277.600 57.239,277.420 56.800,277.200 56.800 C 276.980 56.800,276.800 56.440,276.800 56.000 C 276.800 55.560,276.664 55.200,276.498 55.200 C 276.197 55.200,275.970 54.723,274.546 51.101 C 274.136 50.057,273.665 49.202,273.500 49.201 C 273.335 49.201,273.200 49.012,273.200 48.783 C 273.200 48.366,272.816 47.821,271.500 46.371 C 271.115 45.947,270.800 45.457,270.800 45.282 C 270.800 44.633,261.582 34.800,260.974 34.800 C 260.816 34.800,260.209 34.305,259.626 33.700 C 259.043 33.095,258.084 32.348,257.496 32.040 C 256.908 31.732,256.512 31.342,256.616 31.174 C 256.720 31.006,256.264 30.630,255.602 30.337 C 254.941 30.044,254.400 29.649,254.400 29.460 C 254.400 29.270,254.132 29.217,253.805 29.343 C 253.477 29.468,253.252 29.377,253.305 29.140 C 253.357 28.903,252.950 28.635,252.400 28.543 C 251.850 28.452,251.340 28.202,251.267 27.988 C 251.193 27.775,250.868 27.600,250.543 27.600 C 250.218 27.600,250.054 27.437,250.177 27.237 C 250.300 27.038,250.041 26.969,249.601 27.084 C 249.153 27.201,248.800 27.096,248.800 26.847 C 248.800 26.601,248.517 26.400,248.171 26.400 C 247.826 26.400,247.264 26.121,246.923 25.780 C 246.582 25.440,245.785 25.057,245.152 24.930 C 244.518 24.804,244.000 24.543,244.000 24.350 C 244.000 24.157,243.460 24.000,242.800 24.000 C 242.140 24.000,241.600 23.820,241.600 23.600 C 241.600 23.380,241.150 23.200,240.600 23.200 C 240.050 23.200,239.600 23.020,239.600 22.800 C 239.600 22.580,239.071 22.400,238.424 22.400 C 237.777 22.400,237.136 22.220,237.000 22.000 C 236.864 21.780,236.313 21.600,235.776 21.600 C 235.239 21.600,234.800 21.420,234.800 21.200 C 234.800 20.980,234.260 20.800,233.600 20.800 C 232.940 20.800,232.400 20.620,232.400 20.400 C 232.400 20.180,231.680 20.000,230.800 20.000 C 229.920 20.000,229.200 19.820,229.200 19.600 C 229.200 19.380,228.559 19.200,227.776 19.200 C 226.929 19.200,226.453 19.038,226.600 18.800 C 226.751 18.556,226.137 18.400,225.024 18.400 C 224.021 18.400,223.200 18.220,223.200 18.000 C 223.200 17.780,222.401 17.600,221.424 17.600 C 220.447 17.600,219.536 17.420,219.400 17.200 C 219.264 16.980,218.263 16.800,217.176 16.800 C 216.089 16.800,215.200 16.635,215.200 16.434 C 215.200 16.228,212.356 16.062,208.700 16.056 L 202.200 16.043 200.900 17.457 M126.598 108.433 C 137.115 112.369,149.931 125.357,152.493 134.679 C 157.686 153.571,136.173 140.669,125.349 118.400 C 120.898 109.241,121.249 106.432,126.598 108.433 M276.722 111.659 C 277.615 122.372,261.068 146.800,252.916 146.800 C 242.186 146.800,248.279 129.966,263.400 117.831 C 272.667 110.394,276.469 108.632,276.722 111.659 M246.145 143.855 C 247.246 144.955,247.674 148.060,246.800 148.600 C 246.580 148.736,246.400 149.366,246.400 150.000 C 246.400 150.634,246.220 151.264,246.000 151.400 C 245.780 151.536,245.600 152.076,245.600 152.600 C 245.600 153.124,245.420 153.664,245.200 153.800 C 244.980 153.936,244.800 154.577,244.800 155.224 C 244.800 155.871,244.620 156.400,244.400 156.400 C 244.180 156.400,244.000 156.940,244.000 157.600 C 244.000 158.260,243.820 158.800,243.600 158.800 C 243.380 158.800,243.200 159.419,243.200 160.176 C 243.200 160.933,243.020 161.664,242.800 161.800 C 242.580 161.936,242.400 162.656,242.400 163.400 C 242.400 164.144,242.220 164.864,242.000 165.000 C 241.780 165.136,241.600 166.227,241.600 167.424 C 241.600 168.621,241.420 169.600,241.200 169.600 C 240.944 169.600,240.800 173.059,240.800 179.176 C 240.800 185.129,240.951 188.846,241.200 189.000 C 241.420 189.136,241.600 190.036,241.600 191.000 C 241.600 191.964,241.780 192.864,242.000 193.000 C 242.220 193.136,242.400 193.856,242.400 194.600 C 242.400 195.344,242.580 196.064,242.800 196.200 C 243.020 196.336,243.200 196.799,243.200 197.229 C 243.200 197.659,243.359 198.323,243.553 198.705 C 243.748 199.087,244.082 199.850,244.297 200.400 C 244.511 200.950,245.099 202.210,245.603 203.200 C 246.107 204.190,246.717 205.404,246.960 205.897 C 247.202 206.390,247.535 206.795,247.700 206.797 C 247.865 206.799,248.000 207.036,248.000 207.325 C 248.000 207.613,248.320 208.198,248.711 208.625 C 249.102 209.051,249.855 210.030,250.385 210.800 C 252.171 213.394,258.673 220.545,259.526 220.853 C 259.913 220.993,262.810 223.537,268.118 228.400 C 272.706 232.603,273.949 235.942,271.745 238.145 C 270.505 239.386,270.378 239.400,260.400 239.400 C 252.478 239.400,244.904 239.907,244.562 240.461 C 244.447 240.647,243.654 240.800,242.800 240.800 C 241.946 240.800,241.136 240.980,241.000 241.200 C 240.864 241.420,240.223 241.600,239.576 241.600 C 238.929 241.600,238.400 241.780,238.400 242.000 C 238.400 242.220,238.085 242.399,237.700 242.397 C 237.028 242.394,230.412 245.516,230.000 246.030 C 229.890 246.168,229.380 246.502,228.866 246.772 C 225.698 248.442,217.600 257.335,217.600 259.145 C 217.600 259.358,217.465 259.593,217.300 259.667 C 217.011 259.795,215.411 262.956,214.803 264.600 C 214.350 265.824,213.547 267.721,213.153 268.495 C 212.959 268.877,212.800 269.541,212.800 269.971 C 212.800 270.401,212.620 270.864,212.400 271.000 C 212.180 271.136,212.000 271.676,212.000 272.200 C 212.000 272.724,211.820 273.264,211.600 273.400 C 211.380 273.536,211.200 274.177,211.200 274.824 C 211.200 275.471,211.020 276.000,210.800 276.000 C 210.580 276.000,210.400 276.540,210.400 277.200 C 210.400 277.860,210.220 278.400,210.000 278.400 C 209.780 278.400,209.600 278.940,209.600 279.600 C 209.600 280.260,209.420 280.800,209.200 280.800 C 208.980 280.800,208.800 281.065,208.800 281.388 C 208.800 286.837,201.629 288.020,199.253 282.963 C 198.953 282.324,198.548 281.487,198.353 281.105 C 198.159 280.723,198.000 280.059,198.000 279.629 C 198.000 279.199,197.840 278.748,197.644 278.627 C 197.449 278.506,197.198 277.821,197.088 277.104 C 196.603 273.953,192.904 262.335,192.300 262.067 C 192.135 261.993,192.000 261.714,192.000 261.446 C 192.000 260.737,191.051 258.807,190.700 258.803 C 190.535 258.801,190.400 258.440,190.400 258.000 C 190.400 257.560,190.220 257.200,190.000 257.200 C 189.780 257.200,189.600 256.964,189.600 256.675 C 189.600 256.387,189.240 255.764,188.800 255.292 C 188.360 254.820,188.000 254.270,188.000 254.070 C 188.000 253.382,180.078 245.600,179.379 245.600 C 179.262 245.600,178.780 245.240,178.308 244.800 C 177.836 244.360,177.213 244.000,176.925 244.000 C 176.636 244.000,176.400 243.820,176.400 243.600 C 176.400 243.380,176.040 243.200,175.600 243.200 C 175.160 243.200,174.800 243.020,174.800 242.800 C 174.800 242.580,174.440 242.400,174.000 242.400 C 173.560 242.400,173.200 242.220,173.200 242.000 C 173.200 241.780,172.761 241.600,172.224 241.600 C 171.687 241.600,171.136 241.420,171.000 241.200 C 170.864 240.980,170.324 240.800,169.800 240.800 C 169.276 240.800,168.748 240.639,168.626 240.442 C 167.477 238.582,147.938 238.122,135.665 239.665 C 124.729 241.040,124.520 236.932,134.998 226.533 C 138.360 223.197,141.176 220.284,141.256 220.060 C 141.335 219.836,142.405 218.606,143.633 217.327 C 144.862 216.047,146.888 213.650,148.137 212.000 C 149.386 210.350,150.764 208.550,151.199 208.000 C 151.633 207.450,151.992 206.775,151.995 206.500 C 151.998 206.225,152.158 206.000,152.351 206.000 C 152.545 206.000,152.927 205.460,153.200 204.800 C 153.473 204.140,153.855 203.600,154.049 203.600 C 154.242 203.600,154.400 203.240,154.400 202.800 C 154.400 202.360,154.580 202.000,154.800 202.000 C 155.020 202.000,155.200 201.640,155.200 201.200 C 155.200 200.760,155.380 200.400,155.600 200.400 C 155.820 200.400,156.000 200.128,156.000 199.795 C 156.000 199.462,156.180 198.832,156.400 198.395 C 156.620 197.958,156.980 197.242,157.200 196.805 C 157.420 196.368,157.600 195.659,157.600 195.229 C 157.600 194.799,157.780 194.336,158.000 194.200 C 158.220 194.064,158.400 193.369,158.400 192.656 C 158.400 191.943,158.564 191.189,158.765 190.980 C 159.961 189.734,159.964 171.057,158.768 169.820 C 158.565 169.611,158.400 168.576,158.400 167.520 C 158.400 166.464,158.220 165.600,158.000 165.600 C 157.780 165.600,157.600 164.891,157.600 164.024 C 157.600 163.157,157.420 162.336,157.200 162.200 C 156.980 162.064,156.800 161.434,156.800 160.800 C 156.800 160.166,156.620 159.536,156.400 159.400 C 156.180 159.264,156.000 158.533,156.000 157.776 C 156.000 157.019,155.820 156.400,155.600 156.400 C 155.380 156.400,155.200 155.871,155.200 155.224 C 155.200 154.577,155.020 153.936,154.800 153.800 C 154.580 153.664,154.400 152.944,154.400 152.200 C 154.400 151.456,154.220 150.736,154.000 150.600 C 153.426 150.245,153.494 144.666,154.080 144.080 C 155.650 142.510,161.138 144.910,170.466 151.245 C 171.725 152.100,172.946 152.800,173.178 152.800 C 173.410 152.800,173.600 152.959,173.600 153.153 C 173.600 153.348,173.915 153.607,174.300 153.729 C 175.236 154.025,177.366 155.324,177.533 155.700 C 177.607 155.865,178.012 156.000,178.433 156.000 C 178.855 156.000,179.200 156.180,179.200 156.400 C 179.200 156.620,179.545 156.800,179.967 156.800 C 180.388 156.800,180.793 156.935,180.867 157.100 C 180.995 157.388,184.020 158.921,185.900 159.651 C 186.395 159.843,187.205 160.167,187.700 160.371 C 188.665 160.770,191.371 161.587,194.600 162.456 C 201.042 164.189,212.212 162.363,218.400 158.564 C 218.950 158.227,219.715 157.851,220.100 157.729 C 220.485 157.607,220.800 157.348,220.800 157.153 C 220.800 156.959,221.078 156.800,221.417 156.800 C 221.756 156.800,222.420 156.440,222.892 156.000 C 223.364 155.560,223.987 155.200,224.275 155.200 C 224.564 155.200,224.800 155.062,224.800 154.894 C 224.800 154.726,225.520 154.144,226.400 153.600 C 227.280 153.056,228.000 152.474,228.000 152.306 C 228.000 152.138,228.185 152.000,228.411 152.000 C 228.638 152.000,229.943 151.135,231.311 150.078 C 236.143 146.345,240.416 143.600,241.395 143.600 C 241.728 143.600,242.000 143.420,242.000 143.200 C 242.000 142.298,245.075 142.784,246.145 143.855 M299.241 235.809 C 309.350 237.935,323.691 245.252,329.900 251.451 C 334.415 255.959,332.952 256.610,318.400 256.570 C 303.154 256.528,295.613 255.541,285.800 252.300 C 269.234 246.830,268.659 236.896,284.800 235.033 C 287.466 234.725,296.363 235.203,299.241 235.809 M121.575 236.630 C 124.747 237.572,125.762 238.772,125.471 241.234 C 124.752 247.302,115.817 253.226,103.541 255.775 C 99.087 256.700,92.015 257.272,84.800 257.292 C 72.597 257.325,71.615 256.691,77.039 252.280 C 90.615 241.242,111.909 233.759,121.575 236.630 M206.400 289.543 C 211.897 293.576,212.939 305.864,209.322 323.996 C 208.774 326.744,208.098 329.714,207.820 330.596 C 207.543 331.478,207.068 333.010,206.767 334.000 C 205.968 336.619,204.616 339.287,203.641 340.166 C 202.672 341.040,200.800 339.846,200.800 338.354 C 200.800 337.965,200.641 337.549,200.446 337.429 C 200.251 337.308,199.993 336.713,199.871 336.105 C 199.749 335.497,199.458 334.190,199.224 333.200 C 197.557 326.154,196.474 317.991,196.145 310.008 C 195.527 295.004,200.451 285.178,206.400 289.543 " stroke="none" fill="#fcbcdb" fill-rule="evenodd"></path><path id="path3" d="M174.930 165.055 C 167.147 167.813,164.612 179.445,170.637 184.749 C 173.493 187.263,175.285 187.917,179.622 188.028 C 185.846 188.188,188.235 186.525,190.749 180.281 C 194.164 171.803,183.864 161.889,174.930 165.055 M218.989 166.816 C 213.112 169.077,210.315 175.814,212.350 182.800 C 214.444 189.988,225.830 192.276,232.429 186.837 C 236.873 183.174,237.202 175.274,233.115 170.384 C 230.081 166.753,223.483 165.086,218.989 166.816 M160.400 206.881 C 159.850 207.116,158.860 207.543,158.200 207.829 C 151.780 210.614,150.014 222.353,155.231 227.569 C 160.704 233.043,172.053 231.379,174.931 224.681 C 178.001 217.536,174.659 207.200,169.280 207.200 C 168.822 207.200,168.336 207.020,168.200 206.800 C 167.873 206.271,161.677 206.336,160.400 206.881 M230.800 207.595 C 230.109 207.995,228.848 208.471,228.048 208.633 C 227.088 208.827,224.959 211.167,223.966 213.119 C 220.193 220.537,224.886 229.657,233.474 231.599 C 244.813 234.162,252.422 219.400,244.309 210.579 C 241.518 207.544,233.821 205.844,230.800 207.595 M200.600 232.766 C 199.940 232.949,198.918 233.292,198.328 233.529 C 196.857 234.119,192.400 238.618,192.400 239.513 C 192.400 239.913,192.208 240.432,191.974 240.666 C 190.147 242.493,191.907 251.206,194.627 253.802 C 195.779 254.901,196.392 255.274,199.110 256.526 C 200.381 257.112,207.490 257.070,208.087 256.473 C 208.347 256.213,208.805 256.000,209.103 256.000 C 209.402 256.000,210.436 255.261,211.399 254.357 C 220.181 246.126,211.927 229.623,200.600 232.766 " stroke="none" fill="#fcd3b3" fill-rule="evenodd"></path><path id="path4" d="M122.667 107.867 C 119.497 111.036,131.716 131.784,141.200 139.335 C 153.777 149.350,157.869 139.257,147.194 124.551 C 141.501 116.708,125.029 105.504,122.667 107.867 M273.600 110.725 C 258.346 118.449,244.151 137.338,248.384 144.281 C 252.572 151.149,264.096 142.943,271.314 127.954 C 277.626 114.843,278.502 108.243,273.600 110.725 M242.000 143.200 C 242.000 143.420,241.728 143.600,241.395 143.600 C 240.416 143.600,236.143 146.345,231.311 150.078 C 229.943 151.135,228.638 152.000,228.411 152.000 C 228.185 152.000,228.000 152.138,228.000 152.306 C 228.000 152.474,227.280 153.056,226.400 153.600 C 225.520 154.144,224.800 154.726,224.800 154.894 C 224.800 155.062,224.564 155.200,224.275 155.200 C 223.987 155.200,223.364 155.560,222.892 156.000 C 222.420 156.440,221.756 156.800,221.417 156.800 C 221.078 156.800,220.800 156.959,220.800 157.153 C 220.800 157.348,220.485 157.607,220.100 157.729 C 219.715 157.851,218.950 158.227,218.400 158.564 C 212.212 162.363,201.042 164.189,194.600 162.456 C 191.371 161.587,188.665 160.770,187.700 160.371 C 187.205 160.167,186.395 159.843,185.900 159.651 C 184.020 158.921,180.995 157.388,180.867 157.100 C 180.793 156.935,180.388 156.800,179.967 156.800 C 179.545 156.800,179.200 156.620,179.200 156.400 C 179.200 156.180,178.855 156.000,178.433 156.000 C 178.012 156.000,177.607 155.865,177.533 155.700 C 177.366 155.324,175.236 154.025,174.300 153.729 C 173.915 153.607,173.600 153.348,173.600 153.153 C 173.600 152.959,173.410 152.800,173.178 152.800 C 172.946 152.800,171.725 152.100,170.466 151.245 C 161.138 144.910,155.650 142.510,154.080 144.080 C 153.494 144.666,153.426 150.245,154.000 150.600 C 154.220 150.736,154.400 151.456,154.400 152.200 C 154.400 152.944,154.580 153.664,154.800 153.800 C 155.020 153.936,155.200 154.577,155.200 155.224 C 155.200 155.871,155.380 156.400,155.600 156.400 C 155.820 156.400,156.000 157.019,156.000 157.776 C 156.000 158.533,156.180 159.264,156.400 159.400 C 156.620 159.536,156.800 160.166,156.800 160.800 C 156.800 161.434,156.980 162.064,157.200 162.200 C 157.420 162.336,157.600 163.157,157.600 164.024 C 157.600 164.891,157.780 165.600,158.000 165.600 C 158.220 165.600,158.400 166.464,158.400 167.520 C 158.400 168.576,158.565 169.611,158.768 169.820 C 159.964 171.057,159.961 189.734,158.765 190.980 C 158.564 191.189,158.400 191.943,158.400 192.656 C 158.400 193.369,158.220 194.064,158.000 194.200 C 157.780 194.336,157.600 194.799,157.600 195.229 C 157.600 195.659,157.420 196.368,157.200 196.805 C 156.980 197.242,156.620 197.958,156.400 198.395 C 156.180 198.832,156.000 199.462,156.000 199.795 C 156.000 200.128,155.820 200.400,155.600 200.400 C 155.380 200.400,155.200 200.760,155.200 201.200 C 155.200 201.640,155.020 202.000,154.800 202.000 C 154.580 202.000,154.400 202.360,154.400 202.800 C 154.400 203.240,154.242 203.600,154.049 203.600 C 153.855 203.600,153.473 204.140,153.200 204.800 C 152.927 205.460,152.545 206.000,152.351 206.000 C 152.158 206.000,151.998 206.225,151.995 206.500 C 151.992 206.775,151.633 207.450,151.199 208.000 C 150.764 208.550,149.386 210.350,148.137 212.000 C 146.888 213.650,144.862 216.047,143.633 217.327 C 142.405 218.606,141.335 219.836,141.256 220.060 C 141.176 220.284,138.360 223.197,134.998 226.533 C 124.520 236.932,124.729 241.040,135.665 239.665 C 147.938 238.122,167.477 238.582,168.626 240.442 C 168.748 240.639,169.276 240.800,169.800 240.800 C 170.324 240.800,170.864 240.980,171.000 241.200 C 171.136 241.420,171.687 241.600,172.224 241.600 C 172.761 241.600,173.200 241.780,173.200 242.000 C 173.200 242.220,173.560 242.400,174.000 242.400 C 174.440 242.400,174.800 242.580,174.800 242.800 C 174.800 243.020,175.160 243.200,175.600 243.200 C 176.040 243.200,176.400 243.380,176.400 243.600 C 176.400 243.820,176.636 244.000,176.925 244.000 C 177.213 244.000,177.836 244.360,178.308 244.800 C 178.780 245.240,179.262 245.600,179.379 245.600 C 180.078 245.600,188.000 253.382,188.000 254.070 C 188.000 254.270,188.360 254.820,188.800 255.292 C 189.240 255.764,189.600 256.387,189.600 256.675 C 189.600 256.964,189.780 257.200,190.000 257.200 C 190.220 257.200,190.400 257.560,190.400 258.000 C 190.400 258.440,190.535 258.801,190.700 258.803 C 191.051 258.807,192.000 260.737,192.000 261.446 C 192.000 261.714,192.135 261.993,192.300 262.067 C 192.904 262.335,196.603 273.953,197.088 277.104 C 197.198 277.821,197.449 278.506,197.644 278.627 C 197.840 278.748,198.000 279.199,198.000 279.629 C 198.000 280.059,198.159 280.723,198.353 281.105 C 198.548 281.487,198.953 282.324,199.253 282.963 C 201.629 288.020,208.800 286.837,208.800 281.388 C 208.800 281.065,208.980 280.800,209.200 280.800 C 209.420 280.800,209.600 280.260,209.600 279.600 C 209.600 278.940,209.780 278.400,210.000 278.400 C 210.220 278.400,210.400 277.860,210.400 277.200 C 210.400 276.540,210.580 276.000,210.800 276.000 C 211.020 276.000,211.200 275.471,211.200 274.824 C 211.200 274.177,211.380 273.536,211.600 273.400 C 211.820 273.264,212.000 272.724,212.000 272.200 C 212.000 271.676,212.180 271.136,212.400 271.000 C 212.620 270.864,212.800 270.401,212.800 269.971 C 212.800 269.541,212.959 268.877,213.153 268.495 C 213.547 267.721,214.350 265.824,214.803 264.600 C 215.411 262.956,217.011 259.795,217.300 259.667 C 217.465 259.593,217.600 259.358,217.600 259.145 C 217.600 257.335,225.698 248.442,228.866 246.772 C 229.380 246.502,229.890 246.168,230.000 246.030 C 230.412 245.516,237.028 242.394,237.700 242.397 C 238.085 242.399,238.400 242.220,238.400 242.000 C 238.400 241.780,238.929 241.600,239.576 241.600 C 240.223 241.600,240.864 241.420,241.000 241.200 C 241.136 240.980,241.946 240.800,242.800 240.800 C 243.654 240.800,244.447 240.647,244.562 240.461 C 244.904 239.907,252.478 239.400,260.400 239.400 C 270.378 239.400,270.505 239.386,271.745 238.145 C 273.949 235.942,272.706 232.603,268.118 228.400 C 262.810 223.537,259.913 220.993,259.526 220.853 C 258.673 220.545,252.171 213.394,250.385 210.800 C 249.855 210.030,249.102 209.051,248.711 208.625 C 248.320 208.198,248.000 207.613,248.000 207.325 C 248.000 207.036,247.865 206.799,247.700 206.797 C 247.535 206.795,247.202 206.390,246.960 205.897 C 246.717 205.404,246.107 204.190,245.603 203.200 C 245.099 202.210,244.511 200.950,244.297 200.400 C 244.082 199.850,243.748 199.087,243.553 198.705 C 243.359 198.323,243.200 197.659,243.200 197.229 C 243.200 196.799,243.020 196.336,242.800 196.200 C 242.580 196.064,242.400 195.344,242.400 194.600 C 242.400 193.856,242.220 193.136,242.000 193.000 C 241.780 192.864,241.600 191.964,241.600 191.000 C 241.600 190.036,241.420 189.136,241.200 189.000 C 240.951 188.846,240.800 185.129,240.800 179.176 C 240.800 173.059,240.944 169.600,241.200 169.600 C 241.420 169.600,241.600 168.621,241.600 167.424 C 241.600 166.227,241.780 165.136,242.000 165.000 C 242.220 164.864,242.400 164.144,242.400 163.400 C 242.400 162.656,242.580 161.936,242.800 161.800 C 243.020 161.664,243.200 160.933,243.200 160.176 C 243.200 159.419,243.380 158.800,243.600 158.800 C 243.820 158.800,244.000 158.260,244.000 157.600 C 244.000 156.940,244.180 156.400,244.400 156.400 C 244.620 156.400,244.800 155.871,244.800 155.224 C 244.800 154.577,244.980 153.936,245.200 153.800 C 245.420 153.664,245.600 153.124,245.600 152.600 C 245.600 152.076,245.780 151.536,246.000 151.400 C 246.220 151.264,246.400 150.634,246.400 150.000 C 246.400 149.366,246.580 148.736,246.800 148.600 C 247.674 148.060,247.246 144.955,246.145 143.855 C 245.075 142.784,242.000 142.298,242.000 143.200 M245.600 143.993 C 246.463 144.540,246.309 148.452,245.307 151.408 C 234.120 184.452,239.131 204.004,264.436 226.035 C 271.695 232.355,273.645 235.663,271.300 237.677 C 269.980 238.811,268.979 238.916,258.600 239.007 C 232.071 239.242,219.059 247.987,211.890 270.400 C 211.362 272.050,210.348 275.211,209.637 277.424 C 205.553 290.124,200.923 288.865,197.052 274.000 C 189.691 245.740,173.891 235.279,143.200 238.348 C 123.853 240.282,123.421 239.111,137.979 224.198 C 160.171 201.464,164.558 187.108,157.404 160.636 C 157.072 159.406,156.543 157.455,156.230 156.300 C 154.306 149.212,154.000 147.862,154.000 146.456 C 154.000 142.617,157.106 143.431,166.914 149.842 C 169.066 151.249,170.929 152.400,171.052 152.400 C 171.176 152.400,171.754 152.739,172.338 153.153 C 183.108 160.788,197.769 165.154,206.823 163.421 C 215.048 161.848,220.351 159.012,234.200 148.787 C 240.655 144.021,243.655 142.759,245.600 143.993 M177.705 164.287 C 178.314 164.379,179.214 164.377,179.705 164.282 C 180.197 164.187,179.700 164.111,178.600 164.114 C 177.500 164.117,177.097 164.195,177.705 164.287 M174.122 164.987 C 172.517 165.685,169.322 168.604,168.569 170.059 C 167.609 171.917,167.937 171.857,169.143 169.955 C 170.554 167.729,172.854 165.793,174.985 165.037 C 175.873 164.721,176.330 164.456,176.000 164.447 C 175.670 164.438,174.825 164.681,174.122 164.987 M181.400 164.800 C 181.840 164.989,182.470 165.144,182.800 165.144 C 183.178 165.144,183.104 165.017,182.600 164.800 C 182.160 164.611,181.530 164.456,181.200 164.456 C 180.822 164.456,180.896 164.583,181.400 164.800 M220.540 165.906 C 220.287 166.068,221.496 166.200,223.226 166.200 C 224.956 166.200,226.063 166.078,225.686 165.928 C 224.753 165.558,221.109 165.543,220.540 165.906 M187.091 167.870 C 188.164 168.931,189.352 170.250,189.732 170.800 C 190.369 171.722,190.389 171.727,189.979 170.865 C 189.408 169.664,186.896 166.880,185.905 166.349 C 185.484 166.124,186.018 166.808,187.091 167.870 M216.229 167.809 C 215.805 168.129,215.535 168.468,215.629 168.561 C 215.723 168.655,216.225 168.387,216.744 167.966 C 217.838 167.079,217.379 166.939,216.229 167.809 M229.233 167.316 C 229.325 167.380,230.120 167.933,231.000 168.545 L 232.600 169.658 231.215 168.429 C 230.453 167.753,229.658 167.200,229.448 167.200 C 229.238 167.200,229.142 167.252,229.233 167.316 M213.918 170.089 C 212.827 171.529,212.000 172.979,212.000 173.452 C 212.000 173.620,212.563 172.866,213.250 171.778 C 213.938 170.690,214.697 169.675,214.938 169.522 C 215.180 169.369,215.272 169.139,215.144 169.011 C 215.016 168.883,214.465 169.368,213.918 170.089 M232.800 169.938 C 232.800 170.124,233.188 170.619,233.662 171.038 L 234.524 171.800 233.816 170.700 C 233.086 169.566,232.800 169.351,232.800 169.938 M167.449 172.615 C 167.312 172.973,167.215 173.566,167.234 173.933 C 167.253 174.300,167.427 174.069,167.621 173.420 C 167.998 172.158,167.865 171.533,167.449 172.615 M211.379 175.802 C 211.076 177.819,211.431 181.491,212.016 182.403 C 212.273 182.804,212.300 182.540,212.099 181.600 C 211.935 180.830,211.813 178.805,211.830 177.100 C 211.864 173.549,211.761 173.253,211.379 175.802 M235.800 178.200 C 235.800 180.536,235.917 182.032,236.060 181.524 C 236.203 181.016,236.320 179.520,236.320 178.200 C 236.320 176.880,236.203 175.384,236.060 174.876 C 235.917 174.368,235.800 175.864,235.800 178.200 M166.901 176.600 C 166.905 177.480,166.987 177.793,167.083 177.295 C 167.179 176.798,167.175 176.078,167.075 175.695 C 166.975 175.313,166.896 175.720,166.901 176.600 M191.309 176.800 C 191.309 177.790,191.387 178.195,191.482 177.700 C 191.578 177.205,191.578 176.395,191.482 175.900 C 191.387 175.405,191.309 175.810,191.309 176.800 M234.567 184.214 C 233.808 185.812,231.798 187.604,229.413 188.806 C 228.526 189.254,228.250 189.499,228.800 189.351 C 231.177 188.714,234.827 185.471,235.329 183.549 C 235.636 182.375,235.300 182.667,234.567 184.214 M169.888 184.423 C 170.596 185.188,171.766 186.133,172.488 186.524 C 173.754 187.210,173.765 187.209,172.804 186.517 C 172.256 186.123,171.086 185.178,170.204 184.417 L 168.600 183.034 169.888 184.423 M177.700 188.291 C 178.525 188.378,179.875 188.378,180.700 188.291 C 181.525 188.205,180.850 188.134,179.200 188.134 C 177.550 188.134,176.875 188.205,177.700 188.291 M222.341 190.155 C 223.094 190.371,224.431 190.362,225.696 190.134 C 227.767 189.760,227.747 189.754,224.445 189.775 C 221.777 189.791,221.346 189.869,222.341 190.155 M163.500 206.282 C 163.995 206.378,164.805 206.378,165.300 206.282 C 165.795 206.187,165.390 206.109,164.400 206.109 C 163.410 206.109,163.005 206.187,163.500 206.282 M234.311 207.093 C 235.251 207.178,236.691 207.177,237.511 207.091 C 238.330 207.005,237.560 206.936,235.800 206.937 C 234.040 206.939,233.370 207.009,234.311 207.093 M156.400 208.524 C 156.070 208.799,155.352 209.558,154.805 210.211 C 154.136 211.012,154.365 210.883,155.505 209.819 C 157.032 208.394,157.403 207.974,157.100 208.013 C 157.045 208.020,156.730 208.250,156.400 208.524 M243.642 209.965 C 244.797 211.079,245.807 211.927,245.885 211.849 C 246.090 211.643,243.230 208.844,242.314 208.354 C 241.889 208.126,242.486 208.851,243.642 209.965 M151.850 216.850 C 151.535 218.425,151.573 220.791,151.928 221.685 C 152.078 222.062,152.211 220.847,152.224 218.985 C 152.250 215.239,152.214 215.032,151.850 216.850 M247.724 219.400 C 247.726 220.720,247.801 221.212,247.890 220.493 C 247.979 219.774,247.977 218.694,247.886 218.093 C 247.795 217.492,247.722 218.080,247.724 219.400 M175.800 221.600 C 175.648 222.291,175.614 222.947,175.724 223.057 C 175.834 223.167,176.048 222.691,176.200 222.000 C 176.352 221.309,176.386 220.653,176.276 220.543 C 176.166 220.433,175.952 220.909,175.800 221.600 M243.973 228.469 C 242.969 229.531,242.256 230.400,242.390 230.400 C 242.751 230.400,246.179 226.840,245.975 226.677 C 245.879 226.600,244.978 227.406,243.973 228.469 M172.200 228.268 C 171.320 229.057,170.960 229.516,171.400 229.288 C 172.141 228.904,174.351 226.779,173.970 226.817 C 173.876 226.826,173.080 227.479,172.200 228.268 M226.000 227.750 C 226.550 228.371,227.540 229.250,228.200 229.704 C 229.626 230.685,229.243 230.264,226.800 228.168 C 225.604 227.141,225.336 227.001,226.000 227.750 M160.940 230.894 C 161.512 231.259,167.152 231.242,168.087 230.872 C 168.465 230.722,166.908 230.600,164.627 230.600 C 162.346 230.600,160.687 230.732,160.940 230.894 M232.000 231.600 C 232.330 231.813,233.050 231.973,233.600 231.954 L 234.600 231.920 233.600 231.600 C 232.058 231.106,231.236 231.106,232.000 231.600 M237.800 231.600 C 236.711 231.877,236.693 231.907,237.600 231.925 C 238.150 231.935,238.960 231.789,239.400 231.600 C 240.386 231.176,239.466 231.176,237.800 231.600 M211.381 235.919 C 212.987 237.626,213.749 238.173,212.749 236.902 C 212.004 235.953,211.539 235.504,210.598 234.819 C 210.159 234.499,210.512 234.994,211.381 235.919 M284.800 235.033 C 271.221 236.600,268.887 244.704,280.453 250.126 C 285.170 252.338,291.349 254.214,297.000 255.149 C 306.833 256.778,328.214 257.248,330.700 255.890 C 333.173 254.539,331.145 251.609,324.754 247.302 C 311.087 238.090,296.670 233.663,284.800 235.033 M194.200 236.400 C 193.568 237.060,193.219 237.590,193.425 237.578 C 193.778 237.557,195.839 235.200,195.505 235.200 C 195.420 235.200,194.832 235.740,194.200 236.400 M111.800 236.285 C 100.267 237.875,78.125 248.922,74.090 255.100 C 72.329 257.796,91.672 258.239,103.541 255.775 C 115.817 253.226,124.752 247.302,125.471 241.234 C 125.955 237.143,120.335 235.109,111.800 236.285 M191.082 243.700 C 190.957 244.855,190.992 246.520,191.159 247.400 C 191.397 248.654,191.471 248.199,191.499 245.300 C 191.540 241.116,191.415 240.635,191.082 243.700 M214.868 245.400 C 214.876 247.783,214.988 248.662,215.200 248.000 C 215.628 246.665,215.628 243.595,215.200 242.600 C 214.975 242.077,214.860 243.048,214.868 245.400 M193.906 253.700 C 194.372 254.195,195.348 254.923,196.076 255.317 C 197.349 256.007,197.362 256.007,196.400 255.317 C 195.850 254.923,194.987 254.195,194.482 253.700 C 193.977 253.205,193.450 252.800,193.312 252.800 C 193.174 252.800,193.441 253.205,193.906 253.700 M211.506 254.211 C 210.000 255.611,209.912 256.168,211.400 254.881 C 212.257 254.139,213.395 252.793,213.149 252.811 C 213.067 252.817,212.328 253.447,211.506 254.211 M201.902 257.342 C 203.174 257.566,204.673 257.570,205.702 257.349 C 207.163 257.036,206.870 256.985,203.600 256.978 C 200.031 256.971,199.928 256.993,201.902 257.342 M202.200 288.771 C 195.481 291.711,194.141 311.708,199.224 333.200 C 199.458 334.190,199.749 335.497,199.871 336.105 C 199.993 336.713,200.251 337.308,200.446 337.429 C 200.641 337.549,200.800 337.965,200.800 338.354 C 200.800 339.846,202.672 341.040,203.641 340.166 C 204.616 339.287,205.968 336.619,206.767 334.000 C 207.068 333.010,207.543 331.478,207.820 330.596 C 208.470 328.533,210.165 320.037,210.852 315.400 C 213.177 299.714,208.697 285.927,202.200 288.771 M307.705 369.887 C 308.314 369.979,309.214 369.977,309.705 369.882 C 310.197 369.787,309.700 369.711,308.600 369.714 C 307.500 369.717,307.097 369.795,307.705 369.887 " stroke="none" fill="#fca5cc" fill-rule="evenodd"></path></g></svg>