<svg width="100%" height="100%" viewBox="0 0 1200 1200" version="1.1" xmlns="http://www.w3.org/2000/svg" xmlns:xlink="http://www.w3.org/1999/xlink" xml:space="preserve" xmlns:serif="http://www.serif.com/" style="fill-rule:evenodd;clip-rule:evenodd;stroke-linejoin:round;stroke-miterlimit:2;">
    <g>
        <path d="M594.004,593.948C594.361,594.308 594.392,594.879 594.076,595.275C593.759,595.672 593.196,595.769 592.766,595.501C540.863,563.221 226.976,368.003 218.078,362.47C217.951,362.391 217.844,362.284 217.763,362.158C214.745,357.423 156.623,266.254 137.178,235.752C136.259,234.31 136.357,232.444 137.423,231.107C138.489,229.771 140.287,229.259 141.896,229.835C175.973,242.01 277.855,278.41 283.145,280.3C283.286,280.35 283.414,280.432 283.519,280.538C290.893,287.982 550.992,550.53 594.004,593.948Z" style="fill:rgb(255,206,239);"/>
        <path d="M608.036,602.853C607.558,602.683 607.283,602.182 607.396,601.688C607.509,601.193 607.974,600.862 608.478,600.916C669.276,607.486 1036.79,647.198 1047.2,648.324C1047.35,648.34 1047.49,648.389 1047.62,648.468C1052.39,651.423 1144.28,708.325 1175.03,727.365C1176.48,728.265 1177.2,729.99 1176.82,731.656C1176.44,733.323 1175.05,734.564 1173.35,734.744C1137.39,738.557 1029.96,749.95 1024.38,750.541C1024.23,750.557 1024.08,750.539 1023.94,750.489C1014.07,746.984 665.669,623.311 608.036,602.853Z" style="fill:rgb(255,206,239);"/>
        <path d="M601.006,591.419C600.947,591.923 600.52,592.303 600.012,592.302C599.504,592.302 599.077,591.92 599.02,591.416C592.017,530.09 549.826,160.629 548.638,150.224C548.621,150.077 548.638,149.927 548.686,149.787C550.476,144.56 584.655,44.791 596.216,11.046C596.77,9.429 598.291,8.342 600,8.342C601.71,8.342 603.23,9.429 603.784,11.046C615.505,45.259 650.531,147.502 652.351,152.812C652.399,152.954 652.415,153.104 652.398,153.253C651.178,163.652 608.169,530.347 601.006,591.419Z" style="fill:rgb(255,206,239);"/>
        <path d="M595.431,607.198C595.703,606.77 596.252,606.613 596.709,606.833C597.166,607.053 597.386,607.58 597.22,608.06C577.284,665.869 456.751,1015.37 453.335,1025.28C453.286,1025.42 453.206,1025.55 453.101,1025.65C449.159,1029.65 373.27,1106.54 347.872,1132.27C346.671,1133.49 344.83,1133.81 343.289,1133.07C341.749,1132.32 340.85,1130.68 341.053,1128.99C345.339,1093.07 358.148,985.705 358.813,980.129C358.831,979.98 358.882,979.838 358.962,979.711C364.577,970.866 562.663,658.818 595.431,607.198Z" style="fill:rgb(255,206,239);"/>
        <path d="M607.234,595.501C606.804,595.769 606.241,595.672 605.924,595.275C605.608,594.879 605.639,594.308 605.996,593.948C649.008,550.53 909.107,287.982 916.481,280.538C916.586,280.432 916.714,280.35 916.855,280.3C922.145,278.41 1024.03,242.01 1058.1,229.835C1059.71,229.259 1061.51,229.771 1062.58,231.107C1063.64,232.444 1063.74,234.31 1062.82,235.752C1043.38,266.254 985.255,357.423 982.237,362.158C982.156,362.284 982.049,362.391 981.922,362.47C973.024,368.003 659.137,563.221 607.234,595.501Z" style="fill:rgb(255,206,239);"/>
        <path d="M602.78,608.06C602.614,607.58 602.834,607.053 603.291,606.833C603.748,606.613 604.297,606.77 604.569,607.198C637.337,658.818 835.423,970.866 841.038,979.711C841.118,979.838 841.169,979.98 841.187,980.129C841.852,985.705 854.661,1093.07 858.947,1128.99C859.15,1130.68 858.251,1132.32 856.711,1133.07C855.17,1133.81 853.329,1133.49 852.128,1132.27C826.73,1106.54 750.841,1029.65 746.899,1025.65C746.794,1025.55 746.714,1025.42 746.665,1025.28C743.249,1015.37 622.716,665.869 602.78,608.06Z" style="fill:rgb(255,206,239);"/>
        <path d="M591.522,600.916C592.026,600.862 592.491,601.193 592.604,601.688C592.717,602.182 592.442,602.683 591.964,602.853C534.331,623.311 185.935,746.984 176.061,750.489C175.92,750.539 175.77,750.557 175.621,750.541C170.04,749.95 62.61,738.557 26.654,734.744C24.954,734.564 23.557,733.323 23.176,731.656C22.796,729.99 23.517,728.265 24.97,727.365C55.718,708.325 147.606,651.423 152.379,648.468C152.506,648.389 152.649,648.34 152.798,648.324C163.215,647.198 530.724,607.486 591.522,600.916Z" style="fill:rgb(255,206,239);"/>
        <g transform="matrix(1.06132,0,0,1.06132,-140.802,-39.9764)">
            <path d="M275.199,615.517C274.938,615.546 274.676,615.463 274.478,615.29C274.28,615.117 274.163,614.869 274.156,614.607C274.052,610.75 274,606.881 274,603C274,532.968 291.015,466.879 321.134,408.645C321.255,408.412 321.467,408.24 321.721,408.17C321.974,408.101 322.245,408.14 322.468,408.279C326.685,410.902 345.05,422.323 348.963,424.757C349.378,425.016 349.526,425.549 349.304,425.985C322.24,479.146 306.978,539.305 306.978,603C306.978,605.743 307.006,608.479 307.062,611.209C307.073,611.697 306.708,612.113 306.222,612.165C301.643,612.66 280.141,614.983 275.199,615.517ZM424.696,280.263C424.51,280.077 424.412,279.821 424.423,279.559C424.435,279.296 424.555,279.05 424.756,278.88C478.744,233.311 544.255,200.971 616.267,186.885C616.525,186.835 616.792,186.895 617.004,187.05C617.216,187.205 617.354,187.442 617.383,187.703C617.947,192.639 620.401,214.129 620.924,218.707C620.979,219.193 620.654,219.64 620.174,219.737C555.574,232.805 496.726,261.818 447.923,302.485C447.547,302.798 446.994,302.772 446.65,302.425C443.408,299.152 428.192,283.792 424.696,280.263ZM779.884,187.95C779.914,187.689 780.053,187.452 780.265,187.298C780.478,187.143 780.745,187.084 781.003,187.135C852.515,201.352 917.574,233.579 971.243,278.881C971.444,279.05 971.565,279.296 971.576,279.559C971.588,279.821 971.489,280.077 971.304,280.263C967.808,283.792 952.592,299.152 949.35,302.425C949.006,302.772 948.453,302.798 948.077,302.485C899.569,262.064 841.137,233.156 776.996,219.976C776.516,219.877 776.192,219.429 776.249,218.943C776.786,214.366 779.305,192.884 779.884,187.95ZM1073.53,408.279C1073.76,408.14 1074.03,408.1 1074.28,408.17C1074.53,408.239 1074.75,408.412 1074.87,408.645C1104.99,466.879 1122,532.968 1122,603C1122,606.881 1121.95,610.75 1121.84,614.607C1121.84,614.869 1121.72,615.117 1121.52,615.29C1121.32,615.463 1121.06,615.546 1120.8,615.518C1115.86,614.983 1094.36,612.66 1089.78,612.165C1089.29,612.112 1088.93,611.697 1088.94,611.209C1088.99,608.479 1089.02,605.743 1089.02,603C1089.02,539.305 1073.76,479.146 1046.69,425.985C1046.47,425.549 1046.62,425.016 1047.04,424.757C1050.95,422.323 1069.32,410.902 1073.53,408.279ZM1084.42,775.165C1084.67,775.253 1084.87,775.441 1084.97,775.683C1085.08,775.925 1085.07,776.199 1084.97,776.439C1055.51,841.989 1009.88,898.724 953.176,941.55C952.966,941.708 952.699,941.771 952.44,941.724C952.181,941.678 951.954,941.524 951.813,941.302C949.149,937.105 937.559,918.848 935.092,914.961C934.83,914.549 934.928,914.005 935.316,913.708C986.038,874.893 1027,823.948 1053.84,765.222C1054.04,764.777 1054.55,764.562 1055.01,764.725C1059.35,766.265 1079.74,773.502 1084.42,775.165ZM804.334,1012.48C804.42,1012.73 804.398,1013 804.273,1013.24C804.149,1013.47 803.933,1013.64 803.678,1013.7C769.891,1022.38 734.48,1027 698,1027C661.52,1027 626.109,1022.38 592.322,1013.7C592.067,1013.64 591.851,1013.47 591.727,1013.24C591.602,1013 591.58,1012.73 591.666,1012.48C593.287,1007.78 600.339,987.333 601.841,982.978C602.001,982.517 602.487,982.253 602.961,982.372C633.39,989.982 665.227,994.022 698,994.022C730.773,994.022 762.61,989.982 793.039,982.372C793.513,982.253 794,982.516 794.159,982.978C795.661,987.333 802.713,1007.78 804.334,1012.48ZM444.187,941.302C444.046,941.525 443.819,941.678 443.56,941.725C443.301,941.772 443.034,941.709 442.824,941.55C386.117,898.724 340.489,841.989 311.035,776.439C310.927,776.199 310.925,775.925 311.028,775.683C311.132,775.441 311.331,775.253 311.579,775.165C316.265,773.502 336.651,766.265 340.99,764.725C341.45,764.562 341.959,764.778 342.162,765.222C369.004,823.948 409.962,874.893 460.685,913.708C461.073,914.005 461.17,914.549 460.908,914.961C458.441,918.848 446.851,937.105 444.187,941.302Z" style="fill:rgb(255,206,239);"/>
        </g>
    </g>
</svg>
