<svg width="98" height="96" viewBox="0 0 98 96" fill="none" xmlns="http://www.w3.org/2000/svg">
<path d="M49 50.662L17.6069 52.9315L0.253601 61.788L19.7311 62.2382L49 50.662Z" fill="#FFCEEF"/>
<path d="M21.7005 34.9963L49 50.662L27.6524 27.5329L9.90842 19.4875L21.7005 34.9963Z" fill="#FFCEEF"/>
<path d="M44.227 19.551L49 50.662L53.773 19.551L49 0.661987L44.227 19.551Z" fill="#FFCEEF"/>
<path d="M70.3476 27.5329L49 50.662L76.2995 34.9963L88.0916 19.4875L70.3476 27.5329Z" fill="#FFCEEF"/>
<path d="M80.3931 52.9315L49 50.662C49 50.662 66.8387 57.7174 78.2689 62.2382C85.8753 62.0624 97.7464 61.788 97.7464 61.788L80.3931 52.9315Z" fill="#FFCEEF"/>
<path d="M31.2011 76.6211L27.3058 95.7104L39.8018 80.763L49 50.662L31.2011 76.6211Z" fill="#FFCEEF"/>
<path d="M66.7989 76.6211L49 50.662L58.1982 80.763L70.6942 95.7104L66.7989 76.6211Z" fill="#FFCEEF"/>
<path fill-rule="evenodd" clip-rule="evenodd" d="M84 51C84 70.33 68.33 86 49 86C29.67 86 14 70.33 14 51C14 31.67 29.67 16 49 16C68.33 16 84 31.67 84 51ZM49 83C66.6731 83 81 68.6731 81 51C81 33.3269 66.6731 19 49 19C31.3269 19 17 33.3269 17 51C17 68.6731 31.3269 83 49 83Z" fill="#FFCEEF"/>
<path d="M49 50.662C49 50.662 59.848 66.4834 66.7989 76.6211M49 50.662L17.6069 52.9315L0.253601 61.788L19.7311 62.2382L49 50.662ZM49 50.662L21.7005 34.9963L9.90842 19.4875L27.6524 27.5329L49 50.662ZM49 50.662L58.1982 80.763L70.6942 95.7104M49 50.662L39.8018 80.763L27.3058 95.7104L31.2011 76.6211L49 50.662ZM49 50.662L44.227 19.551L49 0.661987L53.773 19.551L49 50.662ZM49 50.662L70.3476 27.5329L88.0916 19.4875L76.2995 34.9963L49 50.662ZM49 50.662L80.3931 52.9315L97.7464 61.788C97.7464 61.788 85.8753 62.0624 78.2689 62.2382C66.8387 57.7174 49 50.662 49 50.662ZM49 50.662L66.7989 76.6211M70.6942 95.7104C70.6942 95.7104 68.3201 84.076 66.7989 76.6211M70.6942 95.7104L66.7989 76.6211M81 51C81 68.6731 66.6731 83 49 83C31.3269 83 17 68.6731 17 51C17 33.3269 31.3269 19 49 19C66.6731 19 81 33.3269 81 51ZM84 51C84 70.33 68.33 86 49 86C29.67 86 14 70.33 14 51C14 31.67 29.67 16 49 16C68.33 16 84 31.67 84 51Z" stroke="#FFCEEF" stroke-width="0.5"/>
</svg>
