<svg width="498" height="486" viewBox="0 0 498 486" fill="none" xmlns="http://www.w3.org/2000/svg">
<path d="M249.5 255.607L89.4638 267.164L1 312.262L100.293 314.555L249.5 255.607Z" fill="#FFCEEF"/>
<path d="M110.332 175.835L249.5 255.607L140.674 137.83L50.2184 96.8621L110.332 175.835Z" fill="#FFCEEF"/>
<path d="M225.168 97.1853L249.5 255.607L273.832 97.1853L249.5 1L225.168 97.1853Z" fill="#FFCEEF"/>
<path d="M358.326 137.83L249.5 255.607L388.668 175.835L448.781 96.8621L358.326 137.83Z" fill="#FFCEEF"/>
<path d="M409.536 267.164L249.5 255.607C249.5 255.607 340.438 291.534 398.707 314.555C437.484 313.66 498 312.262 498 312.262L409.536 267.164Z" fill="#FFCEEF"/>
<path d="M158.764 387.794L138.907 485L202.609 408.886L249.5 255.607L158.764 387.794Z" fill="#FFCEEF"/>
<path d="M340.236 387.794L249.5 255.607L296.391 408.886L360.093 485L340.236 387.794Z" fill="#FFCEEF"/>
<path fill-rule="evenodd" clip-rule="evenodd" d="M427.923 257.328C427.923 355.759 348.041 435.553 249.5 435.553C150.959 435.553 71.0766 355.759 71.0766 257.328C71.0766 158.897 150.959 79.1032 249.5 79.1032C348.041 79.1032 427.923 158.897 427.923 257.328ZM249.5 420.277C339.594 420.277 412.63 347.322 412.63 257.328C412.63 167.334 339.594 94.3797 249.5 94.3797C159.406 94.3797 86.37 167.334 86.37 257.328C86.37 347.322 159.406 420.277 249.5 420.277Z" fill="#FFCEEF"/>
<path d="M249.5 255.607C249.5 255.607 304.801 336.172 340.236 387.794M249.5 255.607L89.4638 267.164L1 312.262L100.293 314.555L249.5 255.607ZM249.5 255.607L110.332 175.835L50.2184 96.8621L140.674 137.83L249.5 255.607ZM249.5 255.607L296.391 408.886L360.093 485M249.5 255.607L202.609 408.886L138.907 485L158.764 387.794L249.5 255.607ZM249.5 255.607L225.168 97.1853L249.5 1L273.832 97.1853L249.5 255.607ZM249.5 255.607L358.326 137.83L448.781 96.8621L388.668 175.835L249.5 255.607ZM249.5 255.607L409.536 267.164L498 312.262C498 312.262 437.484 313.66 398.707 314.555C340.438 291.534 249.5 255.607 249.5 255.607ZM249.5 255.607L340.236 387.794M360.093 485C360.093 485 347.99 425.756 340.236 387.794M360.093 485L340.236 387.794M412.63 257.328C412.63 347.322 339.594 420.277 249.5 420.277C159.406 420.277 86.37 347.322 86.37 257.328C86.37 167.334 159.406 94.3797 249.5 94.3797C339.594 94.3797 412.63 167.334 412.63 257.328ZM427.923 257.328C427.923 355.759 348.041 435.553 249.5 435.553C150.959 435.553 71.0766 355.759 71.0766 257.328C71.0766 158.897 150.959 79.1032 249.5 79.1032C348.041 79.1032 427.923 158.897 427.923 257.328Z" stroke="#FFCEEF" stroke-width="0.5"/>
</svg>
